<?xml version="1.0" encoding="utf-8"?>
<!-- Generated by IcoMoon.io -->
<!DOCTYPE svg PUBLIC "-//W3C//DTD SVG 1.1//EN" "http://www.w3.org/Graphics/SVG/1.1/DTD/svg11.dtd">
<svg version="1.1" xmlns="http://www.w3.org/2000/svg" xmlns:xlink="http://www.w3.org/1999/xlink" width="24" height="24" viewBox="0 0 24 24">
<path d="M21.382 3.709h2.618v20.073h-20.945v-3.055h-3.055v-20.509h21.382v3.491zM0.873 19.855h2.182v-16.145h17.455v-2.618h-19.636v18.764zM23.127 22.909v-18.327h-19.2v18.327h19.2zM18.327 13.309c0.241 0 0.436 0.195 0.436 0.436s-0.195 0.436-0.436 0.436h-4.364v4.364c0 0.241-0.195 0.436-0.436 0.436s-0.436-0.195-0.436-0.436v-4.364h-4.364c-0.241 0-0.436-0.195-0.436-0.436s0.195-0.436 0.436-0.436h4.364v-4.364c0-0.241 0.195-0.436 0.436-0.436s0.436 0.195 0.436 0.436v4.364h4.364z"></path>
</svg>
