<?xml version="1.0" encoding="utf-8"?>
<!-- Generated by IcoMoon.io -->
<!DOCTYPE svg PUBLIC "-//W3C//DTD SVG 1.1//EN" "http://www.w3.org/Graphics/SVG/1.1/DTD/svg11.dtd">
<svg version="1.1" xmlns="http://www.w3.org/2000/svg" xmlns:xlink="http://www.w3.org/1999/xlink" width="24" height="24" viewBox="0 0 24 24">
<path d="M4.182 13.973c-0.776 0-1.406 0.631-1.406 1.406s0.631 1.406 1.406 1.406c0.776 0 1.406-0.631 1.406-1.406s-0.631-1.406-1.406-1.406zM19.878 11.399c-0.57 0-1.112 0.12-1.604 0.334l-3.374-4.467 0.75-1.386 0.11-0.249c0.055-0.136 0.102-0.276 0.142-0.419 0.095-0.342 0.145-0.702 0.145-1.074 0-2.219-1.799-4.017-4.017-4.017s-4.017 1.799-4.017 4.017c0 0.372 0.051 0.732 0.145 1.074 0.038 0.137 0.083 0.271 0.134 0.402l0.122 0.277 0.745 1.377-3.374 4.467c-0.491-0.214-1.033-0.334-1.603-0.334-2.219 0-4.017 1.799-4.017 4.017 0 0.372 0.051 0.732 0.145 1.074 0.038 0.137 0.083 0.271 0.134 0.402l0.122 0.277 3.616 6.681 3.621-6.691 0.11-0.25c0.055-0.136 0.102-0.276 0.142-0.419 0.095-0.342 0.145-0.702 0.145-1.074 0-1.381-0.697-2.598-1.757-3.321l3.106-4.111 2.482 4.587 2.482-4.588 3.105 4.112c-1.061 0.723-1.757 1.941-1.757 3.321 0 0.372 0.051 0.732 0.145 1.074 0.038 0.137 0.083 0.271 0.134 0.402l0.122 0.277 3.616 6.681 3.62-6.691 0.11-0.25c0.055-0.136 0.102-0.276 0.142-0.419 0.053-0.191 0.092-0.388 0.116-0.589v-0.973c-0.241-1.988-1.934-3.529-3.988-3.529zM4.182 17.528c-1.184 0-2.148-0.964-2.148-2.148s0.964-2.148 2.148-2.148c1.184 0 2.148 0.964 2.148 2.148s-0.964 2.148-2.148 2.148zM12.030 6.248c-1.185 0-2.149-0.964-2.149-2.148s0.964-2.148 2.149-2.148c1.184 0 2.148 0.964 2.148 2.148s-0.964 2.148-2.148 2.148zM19.878 17.528c-1.185 0-2.149-0.964-2.149-2.148s0.964-2.148 2.149-2.148c1.184 0 2.148 0.964 2.148 2.148s-0.964 2.148-2.148 2.148zM12.030 2.694c-0.776 0-1.407 0.631-1.407 1.406s0.632 1.406 1.407 1.406c0.776 0 1.406-0.631 1.406-1.406s-0.631-1.406-1.406-1.406zM19.878 13.973c-0.776 0-1.407 0.631-1.407 1.406s0.632 1.406 1.407 1.406 1.406-0.631 1.406-1.406c0-0.776-0.631-1.406-1.406-1.406z"></path>
</svg>
