<?xml version="1.0" encoding="utf-8"?>
<!-- Generated by IcoMoon.io -->
<!DOCTYPE svg PUBLIC "-//W3C//DTD SVG 1.1//EN" "http://www.w3.org/Graphics/SVG/1.1/DTD/svg11.dtd">
<svg version="1.1" xmlns="http://www.w3.org/2000/svg" xmlns:xlink="http://www.w3.org/1999/xlink" width="24" height="24" viewBox="0 0 24 24">
<path d="M20.577 2h-17.155c-0.67 0-1.214 0.436-1.214 0.971v18.057c0 0.535 0.545 0.971 1.214 0.971h17.155c0.67 0 1.214-0.436 1.214-0.971v-18.057c0-0.535-0.545-0.971-1.214-0.971zM20.958 21.029c0 0.168-0.171 0.305-0.381 0.305h-17.155c-0.21 0-0.381-0.137-0.381-0.305v-18.057c0-0.168 0.171-0.305 0.381-0.305h17.155c0.21 0 0.381 0.137 0.381 0.305v18.057z"></path>
<path d="M4.292 20.333h4.583v-3.667h-4.583v3.667zM5.125 17.333h2.917v2.333h-2.917v-2.333z"></path>
<path d="M9.708 20.333h4.583v-3.667h-4.583v3.667zM10.542 17.333h2.917v2.333h-2.917v-2.333z"></path>
<path d="M15.125 20.333h4.583v-8h-4.583v8zM15.958 13h2.917v6.667h-2.917v-6.667z"></path>
<path d="M4.292 16h4.583v-3.667h-4.583v3.667zM5.125 13h2.917v2.333h-2.917v-2.333z"></path>
<path d="M9.708 16h4.583v-3.667h-4.583v3.667zM10.542 13h2.917v2.333h-2.917v-2.333z"></path>
<path d="M4.292 11.667h4.583v-3.667h-4.583v3.667zM5.125 8.667h2.917v2.333h-2.917v-2.333z"></path>
<path d="M9.708 11.667h4.583v-3.667h-4.583v3.667zM10.542 8.667h2.917v2.333h-2.917v-2.333z"></path>
<path d="M15.125 11.667h4.583v-3.667h-4.583v3.667zM15.958 8.667h2.917v2.333h-2.917v-2.333z"></path>
<path d="M4.292 7h15.417v-3.333h-15.417v3.333zM5.125 4.333h13.75v2h-13.75v-2z"></path>
</svg>
