<?xml version="1.0" encoding="utf-8"?>
<!-- Generated by IcoMoon.io -->
<!DOCTYPE svg PUBLIC "-//W3C//DTD SVG 1.1//EN" "http://www.w3.org/Graphics/SVG/1.1/DTD/svg11.dtd">
<svg version="1.1" xmlns="http://www.w3.org/2000/svg" xmlns:xlink="http://www.w3.org/1999/xlink" width="24" height="24" viewBox="0 0 24 24">
<path d="M11.827 2.133c-4.018 0-7.287 3.272-7.287 7.294 0 2.319 1.943 5.775 3.102 7.628 0.762 1.219 1.581 2.38 2.306 3.267 1.164 1.425 1.58 1.544 1.879 1.544 0.303 0 0.697-0.119 1.857-1.545 0.727-0.893 1.546-2.053 2.307-3.266 1.167-1.858 3.123-5.32 3.123-7.629-0-4.022-3.269-7.294-7.287-7.294zM15.19 16.155c-1.495 2.428-2.867 4.069-3.37 4.488-0.506-0.406-1.855-2.008-3.371-4.48-1.75-2.855-2.753-5.31-2.753-6.736-0-3.384 2.75-6.137 6.131-6.137s6.132 2.753 6.132 6.137c-0 1.418-1.009 3.87-2.769 6.729z"></path>
</svg>
