<?xml version="1.0" encoding="UTF-8" standalone="no"?>
<svg
   xmlns:dc="http://purl.org/dc/elements/1.1/"
   xmlns:cc="http://creativecommons.org/ns#"
   xmlns:rdf="http://www.w3.org/1999/02/22-rdf-syntax-ns#"
   xmlns:svg="http://www.w3.org/2000/svg"
   xmlns="http://www.w3.org/2000/svg"
   version="1.1"
   id="Capa_1"
   x="0px"
   y="0px"
   viewBox="0 0 24 24"
   xml:space="preserve"
   width="24"
   height="24"><metadata
     id="metadata39"><rdf:RDF><cc:Work
         rdf:about=""><dc:format>image/svg+xml</dc:format><dc:type
           rdf:resource="http://purl.org/dc/dcmitype/StillImage" /><dc:title></dc:title></cc:Work></rdf:RDF></metadata><defs
     id="defs37" /><path
     d="M 22.84538,3.7134545 C 22.340071,1.8414545 18.579052,0 11.999998,0 5.420943,0 1.6594888,1.8414545 1.1546161,3.7134545 c -0.036655,0.064145 -0.063709,0.1344 -0.063709,0.2138182 l 0,0.2181818 0,5.0181819 0,0.2181818 0,0.2181818 0,4.8 0,0.218182 0,0.218182 0,5.236363 c 0,0.07069 0.018764,0.137455 0.051055,0.1968 C 1.657307,22.405527 6.267925,24 11.999998,24 c 5.718982,0 10.322182,-1.587927 10.854545,-3.716073 0.03491,-0.0624 0.05455,-0.1344 0.05455,-0.2112 l 0,-5.236363 0,-0.218182 0,-0.218182 0,-4.8 0,-0.2181818 0,-0.2181818 0,-5.0181819 0,-0.2181818 c 0,-0.079418 -0.02706,-0.1496727 -0.06371,-0.2138182 z M 22.001889,14.829818 c -0.01222,0.0528 -0.02924,0.105164 -0.05062,0.1584 -0.01746,0.0432 -0.03884,0.0864 -0.0624,0.1296 -0.02924,0.05367 -0.06196,0.107346 -0.1008,0.161018 -0.0288,0.04058 -0.06153,0.08073 -0.09556,0.120873 -0.04844,0.05716 -0.09993,0.114327 -0.1584,0.171055 -0.03534,0.03447 -0.07418,0.06851 -0.113455,0.102981 -0.07156,0.0624 -0.146181,0.124364 -0.229527,0.185891 -0.03578,0.02662 -0.07418,0.05236 -0.112145,0.07855 -0.09862,0.06807 -0.2016,0.135709 -0.314618,0.202036 -0.02967,0.01789 -0.06153,0.03491 -0.09251,0.05236 -0.130036,0.07331 -0.265745,0.146182 -0.412363,0.216873 -0.01876,0.0092 -0.0384,0.01789 -0.0576,0.02662 -0.163637,0.07724 -0.334691,0.153163 -0.517527,0.226472 -0.0052,0.0022 -0.01047,0.0039 -0.01571,0.0061 -0.990981,0.395781 -2.258618,0.728727 -3.735709,0.946909 -0.0074,8.72e-4 -0.01484,0.0017 -0.02225,0.0031 -0.287127,0.04233 -0.581673,0.07986 -0.884073,0.113018 -0.04931,0.0052 -0.101236,0.0087 -0.150982,0.01396 -0.264,0.02749 -0.531054,0.0528 -0.805963,0.07287 -0.125673,0.0092 -0.257455,0.01353 -0.385309,0.02138 -0.206837,0.01222 -0.411491,0.02575 -0.623564,0.03316 -0.346473,0.01091 -0.699927,0.01789 -1.0608,0.01789 -0.360873,0 -0.714327,-0.007 -1.061236,-0.0192 -0.212073,-0.0074 -0.416728,-0.02138 -0.623564,-0.03316 -0.127855,-0.0074 -0.259636,-0.01222 -0.385309,-0.02138 -0.274909,-0.02007 -0.541964,-0.04538 -0.805964,-0.07287 -0.04974,-0.0052 -0.101673,-0.0087 -0.150982,-0.01396 -0.3024,-0.03316 -0.596945,-0.07113 -0.884072,-0.113018 -0.0074,-8.73e-4 -0.01484,-0.0017 -0.02225,-0.0031 -1.477091,-0.218182 -2.744727,-0.551128 -3.735709,-0.94691 -0.0052,-0.0017 -0.01047,-0.0039 -0.01571,-0.0061 C 4.132372,16.587926 3.960881,16.512 3.797681,16.434764 c -0.01876,-0.0092 -0.03884,-0.01789 -0.0576,-0.02662 -0.146619,-0.07069 -0.2823276,-0.143127 -0.412364,-0.216872 -0.030546,-0.01745 -0.062836,-0.03447 -0.092509,-0.05236 -0.1130182,-0.06633 -0.216,-0.133964 -0.3146182,-0.202036 -0.037527,-0.02618 -0.076364,-0.05193 -0.1121454,-0.07855 C 2.7250888,15.7968 2.6504706,15.734836 2.578907,15.672436 2.5400706,15.6384 2.5007979,15.604364 2.4654525,15.569455 2.4069797,15.512727 2.3554888,15.456 2.3070525,15.3984 c -0.034036,-0.04015 -0.066764,-0.08029 -0.095564,-0.120873 -0.0384,-0.05367 -0.071127,-0.107345 -0.1008,-0.161018 -0.023564,-0.0432 -0.044509,-0.0864 -0.0624,-0.1296 -0.021382,-0.0528 -0.0384,-0.1056 -0.050618,-0.1584 -0.016145,-0.06938 -0.034036,-0.140073 -0.034036,-0.210327 0,-0.04931 0.00567,-0.09862 0.013527,-0.147491 0.010909,-0.06589 0.0048,-0.131782 -0.013527,-0.194182 l 0,-3.239563 c 0.012218,0.01135 0.027491,0.02225 0.040145,0.0336 0.095127,0.08378 0.192,0.167127 0.3010909,0.247418 1.6437814,1.2432 4.9309094,2.209309 9.6951276,2.209309 4.744145,0 8.022982,-0.958255 9.673745,-2.194037 0.131782,-0.096 0.250473,-0.195054 0.362182,-0.295854 l 4.37e-4,-4.37e-4 0,3.239564 c -0.01833,0.0624 -0.02444,0.128291 -0.01353,0.194182 0.0083,0.04887 0.01353,0.09818 0.01353,0.147491 0,0.07026 -0.01789,0.140945 -0.03447,0.211636 z m 0.03447,-9.0292362 0,3.2395637 c -0.01833,0.0624 -0.02444,0.1282909 -0.01353,0.1941818 0.0083,0.048873 0.01353,0.098182 0.01353,0.1474909 0,0.070255 -0.01789,0.1409454 -0.03447,0.2116363 -0.01222,0.0528 -0.02924,0.1051637 -0.05062,0.1584 -0.01746,0.0432 -0.03884,0.0864 -0.0624,0.1296 -0.02924,0.053673 -0.06196,0.1073455 -0.1008,0.1610185 -0.0288,0.04058 -0.06153,0.08073 -0.09556,0.120873 -0.04844,0.05716 -0.09993,0.114327 -0.1584,0.171054 -0.03534,0.03447 -0.07418,0.06851 -0.113455,0.102982 -0.07156,0.0624 -0.146181,0.124364 -0.229527,0.185891 -0.03578,0.02662 -0.07418,0.05236 -0.112145,0.07855 -0.09862,0.06807 -0.2016,0.135709 -0.314618,0.202036 -0.02967,0.01789 -0.06153,0.03491 -0.09251,0.05236 -0.130036,0.07331 -0.265745,0.146182 -0.412363,0.216873 -0.01876,0.0092 -0.0384,0.01789 -0.0576,0.02662 -0.163637,0.07724 -0.334691,0.153163 -0.517527,0.226472 -0.0052,0.0022 -0.01047,0.0039 -0.01571,0.0061 -0.990981,0.395782 -2.258618,0.728728 -3.735709,0.94691 -0.0074,8.72e-4 -0.01484,0.0017 -0.02225,0.003 -0.287127,0.04233 -0.581673,0.07986 -0.884073,0.113018 -0.04931,0.0052 -0.101236,0.0087 -0.150982,0.01396 -0.264,0.02749 -0.531054,0.0528 -0.805963,0.07287 -0.125673,0.0092 -0.257455,0.01353 -0.385309,0.02138 -0.206837,0.01222 -0.411491,0.02575 -0.623564,0.03316 -0.346473,0.01091 -0.699927,0.01789 -1.0608,0.01789 -0.360873,0 -0.714327,-0.007 -1.061236,-0.0192 -0.212073,-0.0074 -0.416728,-0.02138 -0.623564,-0.03316 -0.127861,-0.0074 -0.259642,-0.01221 -0.385315,-0.02138 C 9.65498,12.560727 9.387925,12.535418 9.123925,12.507927 9.07418,12.502691 9.022252,12.4992 8.972943,12.493964 8.670543,12.4608 8.375998,12.422836 8.088871,12.380945 8.081452,12.380073 8.074034,12.3792 8.066616,12.377891 6.589525,12.159709 5.321889,11.826764 4.330907,11.430982 c -0.0052,-0.0017 -0.01047,-0.0039 -0.01571,-0.0061 -0.182835,-0.07331 -0.354326,-0.149236 -0.517526,-0.226472 -0.018764,-0.0092 -0.038837,-0.01789 -0.0576,-0.02662 -0.146619,-0.07069 -0.2823276,-0.143127 -0.412364,-0.216873 -0.030546,-0.01745 -0.062836,-0.03447 -0.092509,-0.05236 -0.1130182,-0.06633 -0.216,-0.133963 -0.3146182,-0.202036 -0.037527,-0.02618 -0.076364,-0.05193 -0.1121454,-0.07855 -0.083346,-0.06153 -0.1579637,-0.123491 -0.2295273,-0.185891 -0.038836,-0.03404 -0.078109,-0.06807 -0.1134545,-0.102982 -0.058473,-0.05673 -0.1099637,-0.113455 -0.1584,-0.171055 -0.034036,-0.04015 -0.066764,-0.08029 -0.095564,-0.120872 -0.0384,-0.053673 -0.071127,-0.1073458 -0.1008,-0.1610185 -0.023564,-0.0432 -0.044509,-0.0864 -0.0624,-0.1296 -0.021382,-0.0528 -0.0384,-0.1056 -0.050618,-0.1584 -0.016145,-0.069382 -0.034036,-0.1400728 -0.034036,-0.2103273 0,-0.049309 0.00567,-0.098618 0.013527,-0.1474909 0.010909,-0.065891 0.0048,-0.1317818 -0.013527,-0.1941818 l 0,-3.2395637 c 0.052364,0.047564 0.1121454,0.094254 0.1688727,0.1413818 0.031418,0.026182 0.060655,0.052364 0.093818,0.078545 0.1309091,0.1029818 0.2722909,0.2046545 0.4254545,0.3037091 0.031855,0.020509 0.067636,0.040582 0.1008,0.061091 0.1282909,0.079854 0.264,0.1579636 0.4066909,0.2347636 0.0528,0.028364 0.1056,0.056291 0.1601455,0.084218 0.1592727,0.081164 0.3263999,0.1601455 0.5022549,0.2365091 0.0288,0.012655 0.05498,0.025745 0.08422,0.037964 0.204654,0.086836 0.421963,0.1697455 0.648,0.2500364 0.0624,0.022254 0.127854,0.0432 0.192,0.065018 0.179782,0.060655 0.365673,0.1186909 0.558109,0.1749818 0.06938,0.020073 0.137454,0.041018 0.208582,0.060218 0.255272,0.070691 0.518836,0.1378909 0.795491,0.1998545 0.03796,0.00873 0.07898,0.015709 0.117381,0.024 0.243928,0.053236 0.497019,0.1025455 0.757091,0.1488 0.08815,0.015709 0.1776,0.030545 0.267491,0.045382 0.247418,0.040582 0.502255,0.077673 0.763637,0.1117091 0.0672,0.00873 0.131345,0.018764 0.199418,0.027055 0.324654,0.039273 0.660654,0.072873 1.005818,0.1016727 0.08509,0.00698 0.173673,0.012218 0.260073,0.018327 0.276218,0.020073 0.5585447,0.036655 0.8474177,0.049745 0.105164,0.0048 0.209891,0.0096 0.317236,0.013527 0.376146,0.012655 0.759273,0.021818 1.156364,0.021818 0.397091,0 0.780218,-0.00916 1.156364,-0.021818 0.106909,-0.00393 0.211636,-0.00873 0.317236,-0.013527 0.288873,-0.013091 0.5712,-0.029673 0.847418,-0.049745 0.0864,-0.00655 0.174546,-0.011346 0.260073,-0.018327 0.345163,-0.028364 0.681163,-0.0624 1.005818,-0.1016727 0.06807,-0.00829 0.132218,-0.018327 0.199418,-0.027055 0.261382,-0.034036 0.515782,-0.071127 0.763637,-0.1117091 0.08989,-0.014836 0.179345,-0.029673 0.26749,-0.045382 0.260073,-0.046255 0.513164,-0.095564 0.757091,-0.1488 0.0384,-0.00829 0.07942,-0.015709 0.117382,-0.024 0.276655,-0.061964 0.540218,-0.1296 0.795491,-0.1998545 0.07113,-0.019636 0.1392,-0.040145 0.208582,-0.060218 0.192436,-0.056291 0.378327,-0.1143273 0.558109,-0.1749818 0.06414,-0.021818 0.1296,-0.042764 0.192,-0.065018 0.226036,-0.080291 0.443782,-0.1632 0.648,-0.2500364 0.02924,-0.012218 0.05542,-0.025309 0.08422,-0.037964 0.175855,-0.0768 0.342982,-0.1553455 0.502255,-0.2365091 0.05454,-0.027927 0.107782,-0.055854 0.160145,-0.084218 0.142691,-0.076364 0.2784,-0.1544727 0.406691,-0.2347636 0.03316,-0.020509 0.06895,-0.040582 0.1008,-0.061091 0.153164,-0.099055 0.294546,-0.2002909 0.425455,-0.3037091 0.03273,-0.026182 0.06196,-0.052364 0.09382,-0.078545 0.05673,-0.047127 0.116509,-0.093818 0.168873,-0.1413818 z M 11.999998,0.8727273 c 5.914909,0 10.036364,1.7245091 10.036364,3.2727272 0,1.5482182 -4.121455,3.2727273 -10.036364,3.2727273 -5.914909,0 -10.0363637,-1.7245091 -10.0363637,-3.2727273 0,-1.5482181 4.1214547,-3.2727272 10.0363637,-3.2727272 z M 22.036362,19.943127 c -0.0061,0.0192 -0.01047,0.03884 -0.01396,0.05891 -0.247418,1.509382 -4.333964,3.125237 -10.0224,3.125237 -5.688436,0 -9.7749819,-1.615855 -10.0224001,-3.125237 -0.00349,-0.01964 -0.00829,-0.03884 -0.013968,-0.05716 l 0,-3.671564 c 0.012218,0.01135 0.027491,0.02226 0.040145,0.0336 0.095127,0.08378 0.192,0.167127 0.3010909,0.247418 1.6437814,1.2432 4.9309094,2.209309 9.6951282,2.209309 4.744145,0 8.022982,-0.958254 9.673745,-2.194036 0.131782,-0.096 0.250473,-0.195055 0.362182,-0.295855 l 4.37e-4,-4.36e-4 0,3.669818 z"
     id="path3" /><g
     id="g5"
     transform="translate(0,-31)" /><g
     id="g7"
     transform="translate(0,-31)" /><g
     id="g9"
     transform="translate(0,-31)" /><g
     id="g11"
     transform="translate(0,-31)" /><g
     id="g13"
     transform="translate(0,-31)" /><g
     id="g15"
     transform="translate(0,-31)" /><g
     id="g17"
     transform="translate(0,-31)" /><g
     id="g19"
     transform="translate(0,-31)" /><g
     id="g21"
     transform="translate(0,-31)" /><g
     id="g23"
     transform="translate(0,-31)" /><g
     id="g25"
     transform="translate(0,-31)" /><g
     id="g27"
     transform="translate(0,-31)" /><g
     id="g29"
     transform="translate(0,-31)" /><g
     id="g31"
     transform="translate(0,-31)" /><g
     id="g33"
     transform="translate(0,-31)" /></svg>