<?xml version="1.0" encoding="utf-8"?>
<!-- Generated by IcoMoon.io -->
<!DOCTYPE svg PUBLIC "-//W3C//DTD SVG 1.1//EN" "http://www.w3.org/Graphics/SVG/1.1/DTD/svg11.dtd">
<svg version="1.1" xmlns="http://www.w3.org/2000/svg" xmlns:xlink="http://www.w3.org/1999/xlink" width="24" height="24" viewBox="0 0 24 24">
<path d="M22.857 1.143c1.524 1.524 1.524 4.005-0 5.529l-15.665 15.665c-0.003 0.003-0.008 0.005-0.011 0.009-0.010 0.009-0.021 0.015-0.031 0.023-0.027 0.021-0.056 0.039-0.087 0.053-0.014 0.006-0.028 0.012-0.043 0.017-0.011 0.004-0.022 0.010-0.033 0.013l-6.451 1.536c-0.033 0.008-0.067 0.012-0.1 0.012-0.056 0-0.112-0.011-0.165-0.033s-0.101-0.053-0.143-0.095c-0.037-0.037-0.064-0.082-0.085-0.129-0.005-0.010-0.009-0.020-0.013-0.031-0.017-0.047-0.028-0.095-0.028-0.144 0-0.006 0.002-0.011 0.002-0.017 0.001-0.029 0.003-0.059 0.010-0.088l1.536-6.451c0.001-0.004 0.004-0.009 0.005-0.013 0.003-0.011 0.009-0.021 0.013-0.033 0.013-0.037 0.031-0.072 0.054-0.104 0.008-0.011 0.016-0.023 0.025-0.033 0.007-0.008 0.011-0.017 0.018-0.024l15.665-15.665c1.525-1.524 4.005-1.524 5.529 0zM22.242 1.757c-1.081-1.081-2.778-1.173-3.969-0.282l4.251 4.251c0.89-1.19 0.798-2.888-0.282-3.969zM20.092 8.208l0.614-0.614-4.3-4.3-0.614 0.614zM2.155 21.845c0.169 0.17 0.169 0.445 0 0.614l-0.329 0.329 4.661-1.109 0.213-1.921-2.225 0.247c-0.016 0.002-0.032 0.003-0.047 0.003h-0.002c-0.016 0-0.032-0.001-0.047-0.003-0.017-0.002-0.030-0.011-0.047-0.015-0.031-0.007-0.061-0.015-0.090-0.029-0.022-0.010-0.040-0.023-0.060-0.036-0.025-0.017-0.047-0.036-0.068-0.058-0.016-0.017-0.030-0.035-0.043-0.055-0.016-0.025-0.030-0.050-0.041-0.079-0.009-0.023-0.017-0.046-0.022-0.072-0.003-0.014-0.010-0.026-0.012-0.040-0.002-0.016 0.004-0.031 0.004-0.048s-0.006-0.031-0.004-0.048l0.247-2.225-1.921 0.213-1.109 4.66 0.329-0.329c0.17-0.17 0.444-0.17 0.614 0zM7.607 19.465l-0.154 1.383 12.025-12.025-4.3-4.3-12.025 12.025 1.383-0.154 9.722-9.721c0.17-0.17 0.444-0.17 0.614 0s0.17 0.444 0 0.614l-9.722 9.721-0.23 2.073 2.073-0.23 9.721-9.721c0.17-0.17 0.444-0.17 0.614 0s0.17 0.444 0 0.614zM21.321 6.979l0.615-0.615-4.3-4.3-0.615 0.615z"></path>
</svg>
