<?xml version="1.0" encoding="utf-8"?>
<!-- Generated by IcoMoon.io -->
<!DOCTYPE svg PUBLIC "-//W3C//DTD SVG 1.1//EN" "http://www.w3.org/Graphics/SVG/1.1/DTD/svg11.dtd">
<svg version="1.1" xmlns="http://www.w3.org/2000/svg" xmlns:xlink="http://www.w3.org/1999/xlink" width="24" height="24" viewBox="0 0 24 24">
<path d="M12 0c6.617 0 12 5.383 12 12s-5.383 12-12 12-12-5.383-12-12 5.383-12 12-12zM12 23.077c6.108 0 11.077-4.969 11.077-11.077s-4.969-11.077-11.077-11.077-11.077 4.969-11.077 11.077 4.969 11.077 11.077 11.077zM12 4.615c0.255 0 0.462 0.206 0.462 0.462v10.154c0 0.255-0.207 0.462-0.462 0.462s-0.462-0.206-0.462-0.462v-10.154c0-0.255 0.207-0.462 0.462-0.462zM12 17.077c0.255 0 0.462 0.206 0.462 0.462v0.923c0 0.255-0.207 0.462-0.462 0.462s-0.462-0.206-0.462-0.462v-0.923c0-0.255 0.207-0.462 0.462-0.462z"></path>
</svg>
