<?xml version="1.0" encoding="utf-8"?>
<!-- Generated by IcoMoon.io -->
<!DOCTYPE svg PUBLIC "-//W3C//DTD SVG 1.1//EN" "http://www.w3.org/Graphics/SVG/1.1/DTD/svg11.dtd">
<svg version="1.1" xmlns="http://www.w3.org/2000/svg" xmlns:xlink="http://www.w3.org/1999/xlink" width="24" height="24" viewBox="0 0 24 24">
<path d="M17 8.8c0.221 0 0.4 0.179 0.4 0.4s-0.179 0.4-0.4 0.4h-10c-0.221 0-0.4-0.179-0.4-0.4s0.179-0.4 0.4-0.4h10zM7 6.4c-0.221 0-0.4-0.179-0.4-0.4s0.179-0.4 0.4-0.4h4c0.221 0 0.4 0.179 0.4 0.4s-0.179 0.4-0.4 0.4h-4zM17 12c0.221 0 0.4 0.179 0.4 0.4s-0.179 0.4-0.4 0.4h-10c-0.221 0-0.4-0.179-0.4-0.4s0.179-0.4 0.4-0.4h10zM17 15.2c0.221 0 0.4 0.179 0.4 0.4s-0.179 0.4-0.4 0.4h-10c-0.221 0-0.4-0.179-0.4-0.4s0.179-0.4 0.4-0.4h10zM17 18.4c0.221 0 0.4 0.179 0.4 0.4s-0.179 0.4-0.4 0.4h-10c-0.221 0-0.4-0.179-0.4-0.4s0.179-0.4 0.4-0.4h10zM15.566 0l5.834 5.834v18.166h-18.8v-24h12.966zM15.8 1.366v4.234h4.234zM3.4 23.2h17.2v-16.8h-5.6v-5.6h-11.6v22.4z"></path>
</svg>
