<?xml version="1.0" encoding="utf-8"?>
<!-- Generated by IcoMoon.io -->
<!DOCTYPE svg PUBLIC "-//W3C//DTD SVG 1.1//EN" "http://www.w3.org/Graphics/SVG/1.1/DTD/svg11.dtd">
<svg version="1.1" xmlns="http://www.w3.org/2000/svg" xmlns:xlink="http://www.w3.org/1999/xlink" width="24" height="24" viewBox="0 0 24 24">
<path d="M22.792 4.6c0.666 0 1.208 0.542 1.208 1.208v15.584c0 0.666-0.542 1.208-1.208 1.208h-21.584c-0.666 0-1.208-0.542-1.208-1.208v-18.784c0-0.666 0.542-1.208 1.208-1.208h8.792c0.666 0 1.208 0.542 1.208 1.208v1.992h11.584zM23.2 21.392v-12.392h-22.4v12.392c0 0.225 0.183 0.408 0.408 0.408h21.584c0.225 0 0.408-0.183 0.408-0.408zM0.8 8.2h22.4v-2.392c0-0.225-0.183-0.408-0.408-0.408h-12.384v-2.792c0-0.225-0.183-0.408-0.408-0.408h-8.792c-0.225 0-0.408 0.183-0.408 0.408v5.592zM7.6 13.4c-0.221 0-0.4-0.179-0.4-0.4s0.179-0.4 0.4-0.4h5.6c0.221 0 0.4 0.179 0.4 0.4s-0.179 0.4-0.4 0.4h-5.6zM7.6 15.8c-0.221 0-0.4-0.179-0.4-0.4s0.179-0.4 0.4-0.4h8.8c0.221 0 0.4 0.179 0.4 0.4s-0.179 0.4-0.4 0.4h-8.8zM7.6 18.2c-0.221 0-0.4-0.179-0.4-0.4s0.179-0.4 0.4-0.4h8.8c0.221 0 0.4 0.179 0.4 0.4s-0.179 0.4-0.4 0.4h-8.8z"></path>
</svg>
