<?xml version="1.0" encoding="utf-8"?>
<!-- Generated by IcoMoon.io -->
<!DOCTYPE svg PUBLIC "-//W3C//DTD SVG 1.1//EN" "http://www.w3.org/Graphics/SVG/1.1/DTD/svg11.dtd">
<svg version="1.1" xmlns="http://www.w3.org/2000/svg" xmlns:xlink="http://www.w3.org/1999/xlink" width="24" height="24" viewBox="0 0 24 24">
<path d="M8.212 11.517l3.382 3.382v-14.493c0-0.225 0.182-0.407 0.407-0.407s0.407 0.182 0.407 0.407v14.459l3.365-3.365c0.159-0.159 0.416-0.159 0.575 0s0.159 0.416 0 0.575l-4.023 4.023c-0.074 0.102-0.188 0.172-0.323 0.172-0.003 0-0.006-0.002-0.009-0.002s-0.006 0.002-0.009 0.002c-0.108 0-0.212-0.043-0.287-0.12l-4.059-4.059c-0.159-0.159-0.159-0.416 0-0.575s0.416-0.159 0.575 0zM14.847 6.509h6.102v17.491h-17.898v-17.491h6.102c0.225 0 0.407 0.182 0.407 0.407s-0.182 0.407-0.407 0.407h-5.288v15.864h16.271v-15.864h-5.288c-0.225 0-0.407-0.182-0.407-0.407s0.182-0.407 0.407-0.407z"></path>
</svg>
