<?xml version="1.0" encoding="utf-8"?>
<!-- Generated by IcoMoon.io -->
<!DOCTYPE svg PUBLIC "-//W3C//DTD SVG 1.1//EN" "http://www.w3.org/Graphics/SVG/1.1/DTD/svg11.dtd">
<svg version="1.1" xmlns="http://www.w3.org/2000/svg" xmlns:xlink="http://www.w3.org/1999/xlink" width="24" height="24" viewBox="0 0 24 24">
<path d="M21.2 8h2.8v13.6h-18.4v-2.8h-2.8v-2.8h-2.8v-13.6h18.4v2.8h2.8v2.8zM0.8 15.2h2v-10h14.8v-2h-16.8v12zM3.6 18h2v-10h14.8v-2h-16.8v12zM23.2 20.8v-12h-16.8v12h16.8zM13.2 6.4c0-0.267 0.133-0.4 0.4-0.4s0.4 0.133 0.4 0.4-0.133 0.4-0.4 0.4c-0.267 0-0.4-0.133-0.4-0.4zM14.4 7.6c0-0.267 0.133-0.4 0.4-0.4s0.4 0.133 0.4 0.4c0 0.267-0.133 0.4-0.4 0.4s-0.4-0.133-0.4-0.4zM15.6 6.4c0-0.267 0.133-0.4 0.4-0.4s0.4 0.133 0.4 0.4-0.133 0.4-0.4 0.4c-0.267 0-0.4-0.133-0.4-0.4zM18 6.4c0-0.267 0.133-0.4 0.4-0.4s0.4 0.133 0.4 0.4-0.133 0.4-0.4 0.4-0.4-0.133-0.4-0.4zM16.8 7.6c0-0.267 0.133-0.4 0.4-0.4s0.4 0.133 0.4 0.4c0 0.267-0.133 0.4-0.4 0.4s-0.4-0.133-0.4-0.4zM19.2 7.6c0-0.267 0.133-0.4 0.4-0.4s0.4 0.133 0.4 0.4c0 0.267-0.133 0.4-0.4 0.4s-0.4-0.133-0.4-0.4zM10.8 6.4c0-0.267 0.133-0.4 0.4-0.4s0.4 0.133 0.4 0.4-0.133 0.4-0.4 0.4-0.4-0.133-0.4-0.4zM12 7.6c0-0.267 0.133-0.4 0.4-0.4s0.4 0.133 0.4 0.4c0 0.267-0.133 0.4-0.4 0.4s-0.4-0.133-0.4-0.4zM3.6 6.4c0-0.267 0.133-0.4 0.4-0.4s0.4 0.133 0.4 0.4-0.133 0.4-0.4 0.4-0.4-0.133-0.4-0.4zM3.6 8.8c0-0.267 0.133-0.4 0.4-0.4s0.4 0.133 0.4 0.4c0 0.267-0.133 0.4-0.4 0.4s-0.4-0.133-0.4-0.4zM4.8 7.6c0-0.267 0.133-0.4 0.4-0.4s0.4 0.133 0.4 0.4c0 0.267-0.133 0.4-0.4 0.4s-0.4-0.133-0.4-0.4zM4.8 10c0-0.267 0.133-0.4 0.4-0.4s0.4 0.133 0.4 0.4-0.133 0.4-0.4 0.4-0.4-0.133-0.4-0.4zM6 6.4c0-0.267 0.133-0.4 0.4-0.4s0.4 0.133 0.4 0.4-0.133 0.4-0.4 0.4c-0.267 0-0.4-0.133-0.4-0.4zM8.4 6.4c0-0.267 0.133-0.4 0.4-0.4s0.4 0.133 0.4 0.4-0.133 0.4-0.4 0.4-0.4-0.133-0.4-0.4zM7.2 7.6c0-0.267 0.133-0.4 0.4-0.4s0.4 0.133 0.4 0.4c0 0.267-0.133 0.4-0.4 0.4s-0.4-0.133-0.4-0.4zM9.6 7.6c0-0.267 0.133-0.4 0.4-0.4s0.4 0.133 0.4 0.4c0 0.267-0.133 0.4-0.4 0.4s-0.4-0.133-0.4-0.4zM3.6 11.2c0-0.267 0.133-0.4 0.4-0.4s0.4 0.133 0.4 0.4-0.133 0.4-0.4 0.4-0.4-0.133-0.4-0.4zM3.6 13.6c0-0.267 0.133-0.4 0.4-0.4s0.4 0.133 0.4 0.4c0 0.267-0.133 0.4-0.4 0.4s-0.4-0.133-0.4-0.4zM4.8 12.4c0-0.267 0.133-0.4 0.4-0.4s0.4 0.133 0.4 0.4-0.133 0.4-0.4 0.4-0.4-0.133-0.4-0.4zM4.8 14.8c0-0.267 0.133-0.4 0.4-0.4s0.4 0.133 0.4 0.4c0 0.267-0.133 0.4-0.4 0.4s-0.4-0.133-0.4-0.4zM3.6 16c0-0.267 0.133-0.4 0.4-0.4s0.4 0.133 0.4 0.4c0 0.267-0.133 0.4-0.4 0.4s-0.4-0.133-0.4-0.4zM4.8 17.2c0-0.267 0.133-0.4 0.4-0.4s0.4 0.133 0.4 0.4-0.133 0.4-0.4 0.4-0.4-0.133-0.4-0.4z"></path>
</svg>
