<?xml version="1.0" encoding="utf-8"?>
<!-- Generated by IcoMoon.io -->
<!DOCTYPE svg PUBLIC "-//W3C//DTD SVG 1.1//EN" "http://www.w3.org/Graphics/SVG/1.1/DTD/svg11.dtd">
<svg version="1.1" xmlns="http://www.w3.org/2000/svg" xmlns:xlink="http://www.w3.org/1999/xlink" width="24" height="24" viewBox="0 0 24 24">
<path d="M23.769 4.636c0.141 0.066 0.231 0.207 0.231 0.362v16.8c0 0.133-0.066 0.257-0.175 0.331-0.067 0.045-0.146 0.069-0.224 0.069-0.050 0-0.101-0.009-0.149-0.028l-5.846-2.338-5.448 2.334c-0.006 0.002-0.012 0.002-0.017 0.004-0.045 0.017-0.092 0.029-0.14 0.029s-0.095-0.012-0.14-0.029c-0.006-0.002-0.012-0.001-0.017-0.004l-5.448-2.334-5.846 2.338c-0.048 0.019-0.099 0.028-0.149 0.028-0.079 0-0.157-0.024-0.224-0.069-0.11-0.074-0.176-0.198-0.176-0.331v-17.2c0-0.164 0.1-0.31 0.251-0.371l6-2.4c0.003-0.002 0.007-0.002 0.010-0.003 0.014-0.005 0.029-0.008 0.044-0.012 0.017-0.004 0.034-0.009 0.051-0.011 0.015-0.002 0.030-0.001 0.046-0.001 0.017 0 0.033-0 0.050 0.002 0.016 0.002 0.031 0.007 0.046 0.011 0.016 0.004 0.033 0.008 0.049 0.014 0.004 0.002 0.007 0.002 0.011 0.003l5.442 2.332 5.442-2.332c0.006-0.002 0.012-0.003 0.017-0.005 0.016-0.006 0.032-0.010 0.048-0.014s0.033-0.008 0.050-0.010c0.015-0.002 0.030-0.002 0.044-0.002 0.018 0 0.036 0 0.054 0.003 0.014 0.002 0.028 0.006 0.043 0.009 0.017 0.004 0.034 0.010 0.051 0.016 0.006 0.002 0.013 0.003 0.019 0.006zM0.8 4.87v16.338l5.2-2.080v-16.338zM6.8 2.806v16.329l4.8 2.057v-16.329zM12.4 4.862v16.33l4.8-2.057v-16.33zM23.2 21.208v-15.955l-5.2-2.426v16.301z"></path>
</svg>
