<?xml version="1.0" encoding="utf-8"?>
<!-- Generated by IcoMoon.io -->
<!DOCTYPE svg PUBLIC "-//W3C//DTD SVG 1.1//EN" "http://www.w3.org/Graphics/SVG/1.1/DTD/svg11.dtd">
<svg version="1.1" xmlns="http://www.w3.org/2000/svg" xmlns:xlink="http://www.w3.org/1999/xlink" width="24" height="24" viewBox="0 0 24 24">
<path d="M12.078 5.26c1.691 0 3.068 1.377 3.068 3.068s-1.377 3.068-3.068 3.068-3.068-1.377-3.068-3.068c0-1.691 1.377-3.068 3.068-3.068zM12.078 10.519c1.208 0 2.191-0.983 2.191-2.192s-0.983-2.192-2.191-2.192-2.191 0.983-2.191 2.192c0 1.208 0.983 2.192 2.191 2.192zM17.944 2.462c2.938 2.937 3.303 8.464 0.781 11.827l-6.724 9.711-6.734-9.725c-2.512-3.349-2.147-8.876 0.791-11.813 1.588-1.588 3.698-2.462 5.943-2.462s4.356 0.874 5.943 2.462zM18.014 13.776c2.289-3.052 1.962-8.043-0.689-10.695-1.422-1.422-3.313-2.205-5.324-2.205s-3.901 0.783-5.323 2.205c-2.652 2.651-2.978 7.643-0.7 10.681l6.023 8.697z"></path>
</svg>
