<?xml version="1.0" encoding="utf-8"?>
<!-- Generated by IcoMoon.io -->
<!DOCTYPE svg PUBLIC "-//W3C//DTD SVG 1.1//EN" "http://www.w3.org/Graphics/SVG/1.1/DTD/svg11.dtd">
<svg version="1.1" xmlns="http://www.w3.org/2000/svg" xmlns:xlink="http://www.w3.org/1999/xlink" width="24" height="24" viewBox="0 0 24 24">
<path d="M8.695 5.061c2.172 0 3.939 1.766 3.939 3.939s-1.767 3.939-3.939 3.939c-2.172 0-3.939-1.766-3.939-3.939s1.767-3.939 3.939-3.939zM8.695 12.104c1.712 0 3.104-1.393 3.104-3.104s-1.393-3.104-3.104-3.104c-1.712 0-3.104 1.393-3.104 3.104s1.393 3.104 3.104 3.104zM21.725 5.458c0.156 1.185 0.092 2.462-0.189 3.793-1.393 6.602-4.755 10.563-5.753 11.62-0.123 0.131-0.298 0.207-0.478 0.207s-0.354-0.076-0.478-0.208c-0.316-0.334-1.087-1.201-1.991-2.566-1.434 2.961-3.027 4.816-3.662 5.488-0.124 0.131-0.298 0.207-0.478 0.207s-0.354-0.076-0.478-0.207c-0.997-1.056-4.36-5.016-5.753-11.62-0.281-1.332-0.344-2.608-0.188-3.793 0.468-3.571 2.688-5.458 6.42-5.458 0.251 0 0.495 0.010 0.732 0.027 0.689-1.395 2.266-2.949 5.878-2.949 3.731 0 5.951 1.887 6.42 5.458zM8.694 23.081c0.912-1.003 4.104-4.867 5.415-11.081 0.185-0.876 0.264-1.722 0.246-2.529-0.005-0.145-0.012-0.285-0.022-0.421-0.001-0.012-0.002-0.025-0.003-0.038-0.012-0.143-0.025-0.283-0.044-0.419-0.138-1.053-0.611-2.952-2.203-4.001-0.88-0.554-2.009-0.837-3.389-0.837-3.299 0-5.18 1.592-5.592 4.732-0.144 1.092-0.083 2.273 0.178 3.513 1.311 6.214 4.504 10.078 5.414 11.080zM12.788 4.052c1.278 0.912 2.069 2.363 2.326 4.328 0.032 0.243 0.049 0.493 0.062 0.743 0.065 0.005 0.127 0.007 0.189 0.007 1.712 0 3.104-1.393 3.104-3.104s-1.393-3.104-3.104-3.104c-1.089 0-2.023 0.417-2.577 1.131zM20.72 9.080c0.261-1.239 0.321-2.421 0.177-3.513-0.412-3.14-2.293-4.732-5.592-4.732-2.455 0-4.121 0.755-4.981 2.229 0.643 0.116 1.226 0.303 1.746 0.561 0.704-0.968 1.902-1.538 3.295-1.538 2.172 0 3.939 1.766 3.939 3.939s-1.767 3.939-3.939 3.939c-0.059 0-0.12-0.005-0.18-0.008-0.018 0.717-0.099 1.457-0.26 2.217-0.419 1.988-1.018 3.731-1.676 5.233 0.878 1.391 1.66 2.319 2.056 2.753 0.912-1.004 4.104-4.87 5.415-11.080z"></path>
</svg>
