<?xml version="1.0" encoding="utf-8"?>
<!-- Generated by IcoMoon.io -->
<!DOCTYPE svg PUBLIC "-//W3C//DTD SVG 1.1//EN" "http://www.w3.org/Graphics/SVG/1.1/DTD/svg11.dtd">
<svg version="1.1" xmlns="http://www.w3.org/2000/svg" xmlns:xlink="http://www.w3.org/1999/xlink" width="24" height="24" viewBox="0 0 24 24">
<path d="M19.206 17.156c1.23 0.615 1.994 1.852 1.994 3.227v1.217c0 1.898-6.018 2.4-9.2 2.4s-9.2-0.502-9.2-2.4v-1.295c0-1.322 0.72-2.535 1.881-3.168l3.568-1.946c0.34-0.186 0.551-0.541 0.551-0.928v-1.324c-0.268-0.351-1.035-1.444-1.401-2.895-0.378-0.303-0.599-0.757-0.599-1.244v-1.6c0-0.385 0.144-0.758 0.4-1.050v-2.128c-0.022-0.22-0.11-1.53 0.837-2.61 0.822-0.937 2.155-1.412 3.963-1.412s3.142 0.475 3.963 1.412c0.947 1.080 0.859 2.39 0.837 2.61v2.128c0.256 0.292 0.4 0.665 0.4 1.050v1.6c0 0.63-0.366 1.188-0.931 1.447-0.289 0.84-0.686 1.62-1.182 2.32-0.1 0.141-0.196 0.268-0.288 0.38v1.352c0 0.403 0.224 0.766 0.584 0.946zM20.4 21.6v-1.217c0-1.071-0.595-2.033-1.552-2.512l-3.821-1.91c-0.633-0.317-1.026-0.953-1.026-1.661v-1.65l0.1-0.114c0.1-0.114 0.216-0.263 0.335-0.432 0.485-0.684 0.866-1.453 1.134-2.285l0.064-0.198 0.199-0.061c0.34-0.105 0.569-0.41 0.569-0.76v-1.6c0-0.224-0.095-0.434-0.268-0.59l-0.132-0.119 0.004-2.544c0.001-0.010 0.13-1.136-0.649-2.016-0.664-0.751-1.792-1.131-3.354-1.131-1.568 0-2.699 0.383-3.362 1.139-0.779 0.889-0.643 1.998-0.642 2.008l0.004 0.052v2.491l-0.132 0.119c-0.173 0.156-0.268 0.366-0.268 0.59v1.6c0 0.27 0.138 0.521 0.37 0.671l0.136 0.088 0.036 0.158c0.374 1.628 1.354 2.814 1.364 2.826l0.093 0.111v1.608c0 0.68-0.371 1.305-0.968 1.631l-3.568 1.946c-0.903 0.492-1.464 1.437-1.464 2.466v1.295c0 0.543 2.965 1.6 8.4 1.6s8.4-1.057 8.4-1.6z"></path>
</svg>
