<?xml version="1.0" encoding="utf-8"?>
<!-- Generated by IcoMoon.io -->
<!DOCTYPE svg PUBLIC "-//W3C//DTD SVG 1.1//EN" "http://www.w3.org/Graphics/SVG/1.1/DTD/svg11.dtd">
<svg version="1.1" xmlns="http://www.w3.org/2000/svg" xmlns:xlink="http://www.w3.org/1999/xlink" width="24" height="24" viewBox="0 0 24 24">
<path d="M3.651 7.761c2.034-1.746 3.64-3.127 7.999-0.664 2.094 1.183 3.783 1.629 5.189 1.629 2.462 0 4.057-1.37 5.436-2.555 0.492-0.422 0.555-1.172 0.142-1.675s-1.148-0.567-1.64-0.145c-2.034 1.747-3.64 3.128-8 0.664-5.759-3.253-8.457-0.936-10.624 0.926-0.492 0.423-0.555 1.172-0.141 1.675s1.148 0.567 1.64 0.145zM20.776 10.295c-2.034 1.747-3.64 3.127-8 0.664-5.759-3.253-8.457-0.936-10.624 0.926-0.492 0.423-0.555 1.173-0.141 1.675s1.148 0.567 1.64 0.145c2.034-1.747 3.64-3.127 7.999-0.665 2.094 1.183 3.783 1.629 5.189 1.629 2.462 0 4.057-1.369 5.436-2.555 0.492-0.423 0.555-1.173 0.142-1.675s-1.148-0.568-1.64-0.145zM20.776 16.239c-2.034 1.747-3.64 3.127-8 0.664-5.759-3.253-8.457-0.936-10.624 0.926-0.492 0.423-0.555 1.173-0.141 1.675s1.148 0.567 1.64 0.144c2.034-1.747 3.64-3.127 7.999-0.665 2.094 1.183 3.783 1.63 5.189 1.63 2.462 0 4.057-1.37 5.436-2.555 0.492-0.423 0.555-1.173 0.142-1.675s-1.148-0.567-1.64-0.144z"></path>
</svg>
