<?xml version="1.0" encoding="utf-8"?>
<!-- Generated by IcoMoon.io -->
<!DOCTYPE svg PUBLIC "-//W3C//DTD SVG 1.1//EN" "http://www.w3.org/Graphics/SVG/1.1/DTD/svg11.dtd">
<svg version="1.1" xmlns="http://www.w3.org/2000/svg" xmlns:xlink="http://www.w3.org/1999/xlink" width="24" height="24" viewBox="0 0 24 24">
<path d="M12 5.778c3.431 0 6.222 2.791 6.222 6.222s-2.791 6.222-6.222 6.222-6.222-2.791-6.222-6.222 2.791-6.222 6.222-6.222zM12 17.333c2.941 0 5.333-2.392 5.333-5.333s-2.392-5.333-5.333-5.333-5.333 2.392-5.333 5.333 2.392 5.333 5.333 5.333zM22.764 9.333c0.681 0 1.236 0.554 1.236 1.236v2.862c0 0.681-0.554 1.236-1.236 1.236h-0.897c-0.229 0.849-0.566 1.662-1.004 2.425l0.634 0.634c0.233 0.234 0.362 0.544 0.362 0.874s-0.128 0.641-0.362 0.874l-2.024 2.024c-0.467 0.467-1.28 0.468-1.748 0l-0.634-0.634c-0.763 0.439-1.576 0.776-2.425 1.004v0.897c0 0.681-0.554 1.236-1.236 1.236h-2.862c-0.681 0-1.236-0.554-1.236-1.236v-0.897c-0.849-0.229-1.662-0.566-2.425-1.004l-0.634 0.634c-0.467 0.468-1.281 0.467-1.748 0l-2.024-2.024c-0.233-0.234-0.362-0.544-0.362-0.874s0.128-0.64 0.362-0.874l0.634-0.634c-0.439-0.763-0.776-1.576-1.004-2.425h-0.897c-0.681 0-1.236-0.554-1.236-1.236v-2.862c0-0.681 0.554-1.236 1.236-1.236h0.897c0.228-0.85 0.565-1.663 1.004-2.425l-0.634-0.634c-0.233-0.234-0.362-0.544-0.362-0.874s0.128-0.641 0.362-0.874l2.024-2.024c0.467-0.467 1.281-0.468 1.748 0l0.634 0.634c0.763-0.439 1.576-0.776 2.425-1.004v-0.897c0-0.681 0.554-1.236 1.236-1.236h2.862c0.681 0 1.236 0.554 1.236 1.236v0.897c0.849 0.229 1.662 0.565 2.425 1.004l0.634-0.634c0.468-0.467 1.281-0.466 1.748 0l2.024 2.024c0.233 0.234 0.362 0.544 0.362 0.874s-0.128 0.64-0.362 0.874l-0.634 0.634c0.439 0.762 0.776 1.576 1.004 2.425h0.897zM23.111 13.431v-2.862c0-0.191-0.156-0.347-0.347-0.347h-1.596l-0.080-0.344c-0.231-0.995-0.622-1.939-1.161-2.805l-0.187-0.3 1.128-1.128c0.136-0.135 0.136-0.355 0-0.491l-2.024-2.024c-0.135-0.135-0.355-0.136-0.491 0l-1.128 1.128-0.3-0.187c-0.867-0.54-1.811-0.93-2.805-1.161l-0.344-0.080v-1.596c0-0.191-0.156-0.347-0.347-0.347h-2.862c-0.191 0-0.347 0.156-0.347 0.347v1.596l-0.344 0.080c-0.995 0.231-1.938 0.622-2.805 1.161l-0.3 0.187-1.128-1.128c-0.136-0.136-0.356-0.135-0.491 0l-2.024 2.024c-0.136 0.135-0.136 0.355 0 0.491l1.128 1.128-0.187 0.3c-0.54 0.867-0.93 1.81-1.161 2.805l-0.080 0.344h-1.596c-0.191 0-0.347 0.156-0.347 0.347v2.862c0 0.191 0.156 0.347 0.347 0.347h1.596l0.080 0.344c0.231 0.995 0.622 1.938 1.161 2.805l0.187 0.3-1.128 1.128c-0.136 0.135-0.136 0.355 0 0.491l2.024 2.024c0.135 0.135 0.355 0.136 0.491 0l1.128-1.128 0.3 0.187c0.867 0.54 1.811 0.93 2.805 1.161l0.344 0.080v1.596c0 0.191 0.156 0.347 0.347 0.347h2.862c0.191 0 0.347-0.156 0.347-0.347v-1.596l0.344-0.080c0.995-0.231 1.938-0.622 2.805-1.161l0.3-0.187 1.128 1.128c0.136 0.136 0.356 0.135 0.491 0l2.024-2.024c0.136-0.135 0.136-0.355 0-0.491l-1.128-1.128 0.187-0.3c0.54-0.867 0.93-1.811 1.161-2.805l0.080-0.344h1.596c0.191 0 0.347-0.156 0.347-0.347zM12 7.556c2.451 0 4.444 1.994 4.444 4.444s-1.994 4.444-4.444 4.444-4.444-1.994-4.444-4.444 1.994-4.444 4.444-4.444zM12 15.556c1.96 0 3.556-1.595 3.556-3.556s-1.595-3.556-3.556-3.556-3.556 1.595-3.556 3.556 1.595 3.556 3.556 3.556z"></path>
</svg>
