<?xml version="1.0" encoding="utf-8"?>
<!-- Generated by IcoMoon.io -->
<!DOCTYPE svg PUBLIC "-//W3C//DTD SVG 1.1//EN" "http://www.w3.org/Graphics/SVG/1.1/DTD/svg11.dtd">
<svg version="1.1" xmlns="http://www.w3.org/2000/svg" xmlns:xlink="http://www.w3.org/1999/xlink" width="24" height="24" viewBox="0 0 24 24">
<path d="M3.429 6c-1.654 0-3-1.346-3-3s1.346-3 3-3c1.508 0 2.757 1.12 2.966 2.571h16.749c0.237 0 0.429 0.192 0.429 0.429s-0.192 0.429-0.429 0.429h-16.749c-0.209 1.451-1.458 2.571-2.966 2.571zM3.429 0.857c-1.182 0-2.143 0.961-2.143 2.143s0.961 2.143 2.143 2.143 2.143-0.961 2.143-2.143-0.961-2.143-2.143-2.143zM20.571 18c1.654 0 3 1.346 3 3s-1.346 3-3 3c-1.508 0-2.757-1.12-2.966-2.571h-16.749c-0.237 0-0.429-0.192-0.429-0.429s0.192-0.429 0.429-0.429h16.749c0.209-1.451 1.458-2.571 2.966-2.571zM20.571 23.143c1.182 0 2.143-0.961 2.143-2.143s-0.961-2.143-2.143-2.143-2.143 0.961-2.143 2.143 0.961 2.143 2.143 2.143zM23.143 11.571c0.237 0 0.429 0.192 0.429 0.429s-0.192 0.429-0.429 0.429h-8.013c-0.247 1.457-1.515 2.571-3.042 2.571s-2.795-1.114-3.042-2.571h-8.19c-0.237 0-0.429-0.192-0.429-0.429s0.192-0.429 0.429-0.429h8.163c0.17-1.543 1.481-2.749 3.069-2.749s2.899 1.205 3.069 2.749h7.985zM12.089 14.143c1.23 0 2.232-1.001 2.232-2.232s-1.001-2.232-2.232-2.232-2.232 1.001-2.232 2.232 1.001 2.232 2.232 2.232z"></path>
</svg>
