<?xml version="1.0" encoding="utf-8"?>
<!-- Generated by IcoMoon.io -->
<!DOCTYPE svg PUBLIC "-//W3C//DTD SVG 1.1//EN" "http://www.w3.org/Graphics/SVG/1.1/DTD/svg11.dtd">
<svg version="1.1" xmlns="http://www.w3.org/2000/svg" xmlns:xlink="http://www.w3.org/1999/xlink" width="24" height="24" viewBox="0 0 24 24">
<path d="M21.057 4.328h-0v2.012h-0.906v15.972c0 0.931-0.757 1.689-1.689 1.689h-12.924c-0.931 0-1.689-0.758-1.689-1.689v-15.972h-0.906v-2.012c0-0.888 0.723-1.611 1.611-1.611h4.276v-1.358c0-0.749 0.61-1.359 1.359-1.359h3.623c0.749 0 1.359 0.61 1.359 1.359v1.358h4.276c0.888 0 1.611 0.723 1.611 1.611zM9.736 1.358v1.358h4.528v-1.358c0-0.25-0.203-0.453-0.453-0.453h-3.623c-0.25 0-0.453 0.203-0.453 0.453zM19.245 22.311v-15.972h-14.491v15.972c0 0.432 0.351 0.783 0.783 0.783h12.925c0.432 0 0.783-0.351 0.783-0.783zM20.151 5.434v-1.106c0-0.389-0.316-0.705-0.705-0.705h-14.892c-0.389 0-0.705 0.316-0.705 0.705v1.106h16.302zM6.113 9.509c0-0.302 0.151-0.453 0.453-0.453s0.453 0.151 0.453 0.453-0.151 0.453-0.453 0.453c-0.302 0-0.453-0.151-0.453-0.453zM6.113 12.226c0-0.302 0.151-0.453 0.453-0.453s0.453 0.151 0.453 0.453-0.151 0.453-0.453 0.453c-0.302 0-0.453-0.151-0.453-0.453zM7.472 8.151c0-0.302 0.151-0.453 0.453-0.453s0.453 0.151 0.453 0.453-0.151 0.453-0.453 0.453-0.453-0.151-0.453-0.453zM10.189 8.151c0-0.302 0.151-0.453 0.453-0.453s0.453 0.151 0.453 0.453-0.151 0.453-0.453 0.453c-0.302 0-0.453-0.151-0.453-0.453zM7.472 10.868c0-0.302 0.151-0.453 0.453-0.453s0.453 0.151 0.453 0.453c0 0.302-0.151 0.453-0.453 0.453s-0.453-0.151-0.453-0.453zM10.189 10.868c0-0.302 0.151-0.453 0.453-0.453s0.453 0.151 0.453 0.453c0 0.302-0.151 0.453-0.453 0.453s-0.453-0.151-0.453-0.453zM8.83 9.509c0-0.302 0.151-0.453 0.453-0.453s0.453 0.151 0.453 0.453-0.151 0.453-0.453 0.453c-0.302 0-0.453-0.151-0.453-0.453zM11.547 9.509c0-0.302 0.151-0.453 0.453-0.453s0.453 0.151 0.453 0.453-0.151 0.453-0.453 0.453c-0.302 0-0.453-0.151-0.453-0.453zM8.83 12.226c0-0.302 0.151-0.453 0.453-0.453s0.453 0.151 0.453 0.453-0.151 0.453-0.453 0.453c-0.302 0-0.453-0.151-0.453-0.453zM11.547 12.226c0-0.302 0.151-0.453 0.453-0.453s0.453 0.151 0.453 0.453-0.151 0.453-0.453 0.453c-0.302 0-0.453-0.151-0.453-0.453zM12.906 8.151c0-0.302 0.151-0.453 0.453-0.453s0.453 0.151 0.453 0.453-0.151 0.453-0.453 0.453c-0.302 0-0.453-0.151-0.453-0.453zM15.623 8.151c0-0.302 0.151-0.453 0.453-0.453s0.453 0.151 0.453 0.453-0.151 0.453-0.453 0.453-0.453-0.151-0.453-0.453zM12.906 10.868c0-0.302 0.151-0.453 0.453-0.453s0.453 0.151 0.453 0.453c0 0.302-0.151 0.453-0.453 0.453s-0.453-0.151-0.453-0.453zM15.623 10.868c0-0.302 0.151-0.453 0.453-0.453s0.453 0.151 0.453 0.453c0 0.302-0.151 0.453-0.453 0.453s-0.453-0.151-0.453-0.453zM14.264 9.509c0-0.302 0.151-0.453 0.453-0.453s0.453 0.151 0.453 0.453-0.151 0.453-0.453 0.453c-0.302 0-0.453-0.151-0.453-0.453zM16.981 9.509c0-0.302 0.151-0.453 0.453-0.453s0.453 0.151 0.453 0.453-0.151 0.453-0.453 0.453c-0.302 0-0.453-0.151-0.453-0.453zM14.264 12.226c0-0.302 0.151-0.453 0.453-0.453s0.453 0.151 0.453 0.453-0.151 0.453-0.453 0.453c-0.302 0-0.453-0.151-0.453-0.453zM16.981 12.226c0-0.302 0.151-0.453 0.453-0.453s0.453 0.151 0.453 0.453-0.151 0.453-0.453 0.453c-0.302 0-0.453-0.151-0.453-0.453zM6.113 14.943c0-0.302 0.151-0.453 0.453-0.453s0.453 0.151 0.453 0.453c0 0.302-0.151 0.453-0.453 0.453s-0.453-0.151-0.453-0.453zM6.113 17.66c0-0.302 0.151-0.453 0.453-0.453s0.453 0.151 0.453 0.453-0.151 0.453-0.453 0.453c-0.302 0-0.453-0.151-0.453-0.453zM7.472 13.585c0-0.302 0.151-0.453 0.453-0.453s0.453 0.151 0.453 0.453-0.151 0.453-0.453 0.453-0.453-0.151-0.453-0.453zM10.189 13.585c0-0.302 0.151-0.453 0.453-0.453s0.453 0.151 0.453 0.453-0.151 0.453-0.453 0.453c-0.302 0-0.453-0.151-0.453-0.453zM7.472 16.302c0-0.302 0.151-0.453 0.453-0.453s0.453 0.151 0.453 0.453-0.151 0.453-0.453 0.453-0.453-0.151-0.453-0.453zM10.189 16.302c0-0.302 0.151-0.453 0.453-0.453s0.453 0.151 0.453 0.453-0.151 0.453-0.453 0.453c-0.302 0-0.453-0.151-0.453-0.453zM8.83 14.943c0-0.302 0.151-0.453 0.453-0.453s0.453 0.151 0.453 0.453c0 0.302-0.151 0.453-0.453 0.453s-0.453-0.151-0.453-0.453zM11.547 14.943c0-0.302 0.151-0.453 0.453-0.453s0.453 0.151 0.453 0.453c0 0.302-0.151 0.453-0.453 0.453s-0.453-0.151-0.453-0.453zM8.83 17.66c0-0.302 0.151-0.453 0.453-0.453s0.453 0.151 0.453 0.453-0.151 0.453-0.453 0.453c-0.302 0-0.453-0.151-0.453-0.453zM11.547 17.66c0-0.302 0.151-0.453 0.453-0.453s0.453 0.151 0.453 0.453-0.151 0.453-0.453 0.453c-0.302 0-0.453-0.151-0.453-0.453zM12.906 13.585c0-0.302 0.151-0.453 0.453-0.453s0.453 0.151 0.453 0.453-0.151 0.453-0.453 0.453c-0.302 0-0.453-0.151-0.453-0.453zM15.623 13.585c0-0.302 0.151-0.453 0.453-0.453s0.453 0.151 0.453 0.453-0.151 0.453-0.453 0.453-0.453-0.151-0.453-0.453zM12.906 16.302c0-0.302 0.151-0.453 0.453-0.453s0.453 0.151 0.453 0.453-0.151 0.453-0.453 0.453c-0.302 0-0.453-0.151-0.453-0.453zM15.623 16.302c0-0.302 0.151-0.453 0.453-0.453s0.453 0.151 0.453 0.453-0.151 0.453-0.453 0.453-0.453-0.151-0.453-0.453zM14.264 14.943c0-0.302 0.151-0.453 0.453-0.453s0.453 0.151 0.453 0.453c0 0.302-0.151 0.453-0.453 0.453s-0.453-0.151-0.453-0.453zM16.981 14.943c0-0.302 0.151-0.453 0.453-0.453s0.453 0.151 0.453 0.453c0 0.302-0.151 0.453-0.453 0.453s-0.453-0.151-0.453-0.453zM14.264 17.66c0-0.302 0.151-0.453 0.453-0.453s0.453 0.151 0.453 0.453-0.151 0.453-0.453 0.453c-0.302 0-0.453-0.151-0.453-0.453zM16.981 17.66c0-0.302 0.151-0.453 0.453-0.453s0.453 0.151 0.453 0.453-0.151 0.453-0.453 0.453c-0.302 0-0.453-0.151-0.453-0.453zM6.113 20.377c0-0.302 0.151-0.453 0.453-0.453s0.453 0.151 0.453 0.453-0.151 0.453-0.453 0.453c-0.302 0-0.453-0.151-0.453-0.453zM7.472 19.019c0-0.302 0.151-0.453 0.453-0.453s0.453 0.151 0.453 0.453c0 0.302-0.151 0.453-0.453 0.453s-0.453-0.151-0.453-0.453zM10.189 19.019c0-0.302 0.151-0.453 0.453-0.453s0.453 0.151 0.453 0.453c0 0.302-0.151 0.453-0.453 0.453s-0.453-0.151-0.453-0.453zM7.472 21.736c0-0.302 0.151-0.453 0.453-0.453s0.453 0.151 0.453 0.453-0.151 0.453-0.453 0.453-0.453-0.151-0.453-0.453zM10.189 21.736c0-0.302 0.151-0.453 0.453-0.453s0.453 0.151 0.453 0.453-0.151 0.453-0.453 0.453c-0.302 0-0.453-0.151-0.453-0.453zM8.83 20.377c0-0.302 0.151-0.453 0.453-0.453s0.453 0.151 0.453 0.453-0.151 0.453-0.453 0.453c-0.302 0-0.453-0.151-0.453-0.453zM11.547 20.377c0-0.302 0.151-0.453 0.453-0.453s0.453 0.151 0.453 0.453c0 0.302-0.151 0.453-0.453 0.453s-0.453-0.151-0.453-0.453zM12.906 19.019c0-0.302 0.151-0.453 0.453-0.453s0.453 0.151 0.453 0.453c0 0.302-0.151 0.453-0.453 0.453s-0.453-0.151-0.453-0.453zM15.623 19.019c0-0.302 0.151-0.453 0.453-0.453s0.453 0.151 0.453 0.453c0 0.302-0.151 0.453-0.453 0.453s-0.453-0.151-0.453-0.453zM12.906 21.736c0-0.302 0.151-0.453 0.453-0.453s0.453 0.151 0.453 0.453-0.151 0.453-0.453 0.453c-0.302 0-0.453-0.151-0.453-0.453zM15.623 21.736c0-0.302 0.151-0.453 0.453-0.453s0.453 0.151 0.453 0.453-0.151 0.453-0.453 0.453-0.453-0.151-0.453-0.453zM14.264 20.377c0-0.302 0.151-0.453 0.453-0.453s0.453 0.151 0.453 0.453-0.151 0.453-0.453 0.453c-0.302 0-0.453-0.151-0.453-0.453zM16.981 20.377c0-0.302 0.151-0.453 0.453-0.453s0.453 0.151 0.453 0.453-0.151 0.453-0.453 0.453c-0.302 0-0.453-0.151-0.453-0.453z"></path>
</svg>
