<?xml version="1.0" encoding="utf-8"?>
<!-- Generated by IcoMoon.io -->
<!DOCTYPE svg PUBLIC "-//W3C//DTD SVG 1.1//EN" "http://www.w3.org/Graphics/SVG/1.1/DTD/svg11.dtd">
<svg version="1.1" xmlns="http://www.w3.org/2000/svg" xmlns:xlink="http://www.w3.org/1999/xlink" width="24" height="24" viewBox="0 0 24 24">
<path d="M22.845 3.713c0.037 0.064 0.064 0.134 0.064 0.214v16.145c0 0.077-0.020 0.149-0.055 0.211-0.532 2.128-5.136 3.716-10.855 3.716-5.732 0-10.343-1.594-10.858-3.73-0.032-0.059-0.051-0.126-0.051-0.197v-16.145c0-0.079 0.027-0.15 0.064-0.214 0.505-1.872 4.266-3.713 10.845-3.713s10.34 1.841 10.845 3.713zM22.002 14.83c0.017-0.071 0.034-0.141 0.034-0.212 0-0.049-0.005-0.099-0.014-0.147-0.011-0.066-0.005-0.132 0.014-0.194v-3.24l-0 0c-0.112 0.101-0.23 0.2-0.362 0.296-1.651 1.236-4.93 2.194-9.674 2.194-4.764 0-8.051-0.966-9.695-2.209-0.109-0.080-0.206-0.164-0.301-0.247-0.013-0.011-0.028-0.022-0.040-0.034v3.24c0.018 0.062 0.024 0.128 0.014 0.194-0.008 0.049-0.014 0.098-0.014 0.147 0 0.070 0.018 0.141 0.034 0.21 0.012 0.053 0.029 0.106 0.051 0.158 0.018 0.043 0.039 0.086 0.062 0.13 0.030 0.054 0.062 0.107 0.101 0.161 0.029 0.041 0.062 0.081 0.096 0.121 0.048 0.058 0.1 0.114 0.158 0.171 0.035 0.035 0.075 0.069 0.113 0.103 0.072 0.062 0.146 0.124 0.23 0.186 0.036 0.027 0.075 0.052 0.112 0.079 0.099 0.068 0.202 0.136 0.315 0.202 0.030 0.018 0.062 0.035 0.093 0.052 0.13 0.074 0.266 0.146 0.412 0.217 0.019 0.009 0.039 0.017 0.058 0.027 0.163 0.077 0.335 0.153 0.518 0.226 0.005 0.002 0.010 0.004 0.016 0.006 0.991 0.396 2.259 0.729 3.736 0.947 0.007 0.001 0.015 0.002 0.022 0.003 0.287 0.042 0.582 0.080 0.884 0.113 0.049 0.005 0.101 0.009 0.151 0.014 0.264 0.027 0.531 0.053 0.806 0.073 0.126 0.009 0.257 0.014 0.385 0.021 0.207 0.012 0.411 0.026 0.624 0.033 0.347 0.012 0.7 0.019 1.061 0.019s0.714-0.007 1.061-0.018c0.212-0.007 0.417-0.021 0.624-0.033 0.128-0.008 0.26-0.012 0.385-0.021 0.275-0.020 0.542-0.045 0.806-0.073 0.050-0.005 0.102-0.009 0.151-0.014 0.302-0.033 0.597-0.071 0.884-0.113 0.007-0.001 0.015-0.002 0.022-0.003 1.477-0.218 2.745-0.551 3.736-0.947 0.005-0.002 0.010-0.004 0.016-0.006 0.183-0.073 0.354-0.149 0.518-0.227 0.019-0.009 0.039-0.017 0.058-0.027 0.147-0.071 0.282-0.144 0.412-0.217 0.031-0.017 0.063-0.034 0.092-0.052 0.113-0.066 0.216-0.134 0.315-0.202 0.038-0.026 0.076-0.052 0.112-0.079 0.083-0.062 0.158-0.124 0.23-0.186 0.039-0.034 0.078-0.068 0.113-0.103 0.058-0.057 0.11-0.114 0.158-0.171 0.034-0.040 0.067-0.080 0.096-0.121 0.039-0.054 0.072-0.107 0.101-0.161 0.024-0.043 0.045-0.086 0.062-0.13 0.021-0.053 0.038-0.106 0.051-0.158zM22.036 5.801c-0.052 0.048-0.112 0.094-0.169 0.141-0.032 0.026-0.061 0.052-0.094 0.079-0.131 0.103-0.272 0.205-0.425 0.304-0.032 0.021-0.068 0.041-0.101 0.061-0.128 0.080-0.264 0.158-0.407 0.235-0.052 0.028-0.106 0.056-0.16 0.084-0.159 0.081-0.326 0.16-0.502 0.237-0.029 0.013-0.055 0.026-0.084 0.038-0.204 0.087-0.422 0.17-0.648 0.25-0.062 0.022-0.128 0.043-0.192 0.065-0.18 0.061-0.366 0.119-0.558 0.175-0.069 0.020-0.137 0.041-0.209 0.060-0.255 0.070-0.519 0.138-0.795 0.2-0.038 0.008-0.079 0.016-0.117 0.024-0.244 0.053-0.497 0.103-0.757 0.149-0.088 0.016-0.178 0.031-0.268 0.045-0.248 0.041-0.502 0.078-0.764 0.112-0.067 0.009-0.131 0.019-0.199 0.027-0.325 0.039-0.661 0.073-1.006 0.102-0.086 0.007-0.174 0.012-0.26 0.018-0.276 0.020-0.559 0.037-0.847 0.050-0.106 0.005-0.21 0.010-0.317 0.014-0.376 0.013-0.759 0.022-1.156 0.022s-0.78-0.009-1.156-0.022c-0.107-0.004-0.212-0.009-0.317-0.014-0.289-0.013-0.571-0.030-0.847-0.050-0.086-0.006-0.175-0.011-0.26-0.018-0.345-0.029-0.681-0.062-1.006-0.102-0.068-0.008-0.132-0.018-0.199-0.027-0.261-0.034-0.516-0.071-0.764-0.112-0.090-0.015-0.179-0.030-0.268-0.045-0.26-0.046-0.513-0.096-0.757-0.149-0.038-0.008-0.079-0.015-0.117-0.024-0.277-0.062-0.54-0.129-0.795-0.2-0.071-0.019-0.139-0.040-0.209-0.060-0.192-0.056-0.378-0.114-0.558-0.175-0.064-0.022-0.13-0.043-0.192-0.065-0.226-0.080-0.443-0.163-0.648-0.25-0.029-0.012-0.055-0.025-0.084-0.038-0.176-0.076-0.343-0.155-0.502-0.236-0.055-0.028-0.107-0.056-0.16-0.084-0.143-0.077-0.278-0.155-0.407-0.235-0.033-0.021-0.069-0.041-0.101-0.061-0.153-0.099-0.295-0.201-0.425-0.304-0.033-0.026-0.062-0.052-0.094-0.079-0.057-0.047-0.117-0.094-0.169-0.141v3.24c0.018 0.062 0.024 0.128 0.014 0.194-0.008 0.049-0.014 0.098-0.014 0.147 0 0.070 0.018 0.141 0.034 0.21 0.012 0.053 0.029 0.106 0.051 0.158 0.018 0.043 0.039 0.086 0.062 0.13 0.030 0.054 0.062 0.107 0.101 0.161 0.029 0.041 0.062 0.081 0.096 0.121 0.048 0.058 0.1 0.114 0.158 0.171 0.035 0.035 0.075 0.069 0.113 0.103 0.072 0.062 0.146 0.124 0.23 0.186 0.036 0.027 0.075 0.052 0.112 0.079 0.099 0.068 0.202 0.136 0.315 0.202 0.030 0.018 0.062 0.035 0.093 0.052 0.13 0.074 0.266 0.146 0.412 0.217 0.019 0.009 0.039 0.017 0.058 0.027 0.163 0.077 0.335 0.153 0.518 0.226 0.005 0.002 0.010 0.004 0.016 0.006 0.991 0.396 2.259 0.729 3.736 0.947 0.007 0.001 0.015 0.002 0.022 0.003 0.287 0.042 0.582 0.080 0.884 0.113 0.049 0.005 0.101 0.009 0.151 0.014 0.264 0.027 0.531 0.053 0.806 0.073 0.126 0.009 0.257 0.014 0.385 0.021 0.207 0.012 0.411 0.026 0.624 0.033 0.347 0.012 0.7 0.019 1.061 0.019s0.714-0.007 1.061-0.018c0.212-0.007 0.417-0.021 0.624-0.033 0.128-0.008 0.26-0.012 0.385-0.021 0.275-0.020 0.542-0.045 0.806-0.073 0.050-0.005 0.102-0.009 0.151-0.014 0.302-0.033 0.597-0.071 0.884-0.113 0.007-0.001 0.015-0.002 0.022-0.003 1.477-0.218 2.745-0.551 3.736-0.947 0.005-0.002 0.010-0.004 0.016-0.006 0.183-0.073 0.354-0.149 0.518-0.226 0.019-0.009 0.039-0.017 0.058-0.027 0.147-0.071 0.282-0.144 0.412-0.217 0.031-0.017 0.063-0.034 0.092-0.052 0.113-0.066 0.216-0.134 0.315-0.202 0.038-0.026 0.076-0.052 0.112-0.079 0.083-0.062 0.158-0.124 0.23-0.186 0.039-0.034 0.078-0.068 0.113-0.103 0.058-0.057 0.11-0.114 0.158-0.171 0.034-0.040 0.067-0.080 0.096-0.121 0.039-0.054 0.072-0.107 0.101-0.161 0.024-0.043 0.045-0.086 0.062-0.13 0.021-0.053 0.038-0.106 0.051-0.158 0.017-0.071 0.034-0.141 0.034-0.212 0-0.049-0.005-0.099-0.014-0.147-0.011-0.066-0.005-0.132 0.014-0.194v-3.24zM12 0.873c-5.915 0-10.036 1.725-10.036 3.273s4.121 3.273 10.036 3.273 10.036-1.725 10.036-3.273-4.121-3.273-10.036-3.273zM22.036 19.943v-3.67l-0 0c-0.112 0.101-0.23 0.2-0.362 0.296-1.651 1.236-4.93 2.194-9.674 2.194-4.764 0-8.051-0.966-9.695-2.209-0.109-0.080-0.206-0.164-0.301-0.247-0.013-0.011-0.028-0.022-0.040-0.034v3.672c0.006 0.018 0.010 0.038 0.014 0.057 0.247 1.509 4.334 3.125 10.022 3.125s9.775-1.616 10.022-3.125c0.003-0.020 0.008-0.040 0.014-0.059z"></path>
</svg>
