<?xml version="1.0" encoding="UTF-8" standalone="no"?>
<svg
   xmlns:dc="http://purl.org/dc/elements/1.1/"
   xmlns:cc="http://creativecommons.org/ns#"
   xmlns:rdf="http://www.w3.org/1999/02/22-rdf-syntax-ns#"
   xmlns:svg="http://www.w3.org/2000/svg"
   xmlns="http://www.w3.org/2000/svg"
   id="svg2"
   viewBox="0 0 24 24"
   height="24"
   width="24"
   version="1.1">
  <metadata
     id="metadata10">
    <rdf:RDF>
      <cc:Work
         rdf:about="">
        <dc:format>image/svg+xml</dc:format>
        <dc:type
           rdf:resource="http://purl.org/dc/dcmitype/StillImage" />
        <dc:title></dc:title>
      </cc:Work>
    </rdf:RDF>
  </metadata>
  <defs
     id="defs8" />
  <path
     style="fill:#fefefe;fill-opacity:1"
     id="path4"
     d="M19.226 11.345c0-0.291 0.146-0.437 0.437-0.437s0.437 0.146 0.437 0.437c0 0.291-0.146 0.437-0.437 0.437s-0.437-0.146-0.437-0.437zM3.503 11.345c0-0.291 0.146-0.437 0.437-0.437s0.437 0.146 0.437 0.437c0 0.291-0.146 0.437-0.437 0.437s-0.437-0.146-0.437-0.437zM4.813 12.655c0-0.291 0.146-0.437 0.437-0.437s0.437 0.146 0.437 0.437c0 0.291-0.146 0.437-0.437 0.437s-0.437-0.146-0.437-0.437zM7.434 12.655c0-0.291 0.146-0.437 0.437-0.437s0.437 0.146 0.437 0.437c0 0.291-0.146 0.437-0.437 0.437s-0.437-0.146-0.437-0.437zM6.124 13.965c0-0.291 0.146-0.437 0.437-0.437s0.437 0.146 0.437 0.437c0 0.291-0.146 0.437-0.437 0.437s-0.437-0.146-0.437-0.437zM8.744 13.965c0-0.291 0.146-0.437 0.437-0.437s0.437 0.146 0.437 0.437c0 0.291-0.146 0.437-0.437 0.437s-0.437-0.146-0.437-0.437zM10.054 15.275c0-0.291 0.146-0.437 0.437-0.437s0.437 0.146 0.437 0.437c0 0.291-0.146 0.437-0.437 0.437s-0.437-0.146-0.437-0.437zM12.675 15.275c0-0.291 0.146-0.437 0.437-0.437s0.437 0.146 0.437 0.437c0 0.291-0.146 0.437-0.437 0.437s-0.437-0.146-0.437-0.437zM13.985 13.965c0-0.291 0.146-0.437 0.437-0.437s0.437 0.146 0.437 0.437c0 0.291-0.146 0.437-0.437 0.437s-0.437-0.146-0.437-0.437zM11.364 16.585c0-0.291 0.146-0.437 0.437-0.437s0.437 0.146 0.437 0.437c0 0.291-0.146 0.437-0.437 0.437s-0.437-0.146-0.437-0.437zM15.295 12.655c0-0.291 0.146-0.437 0.437-0.437s0.437 0.146 0.437 0.437c0 0.291-0.146 0.437-0.437 0.437s-0.437-0.146-0.437-0.437zM17.915 12.655c0-0.291 0.146-0.437 0.437-0.437s0.437 0.146 0.437 0.437c0 0.291-0.146 0.437-0.437 0.437s-0.437-0.146-0.437-0.437zM16.605 13.965c0-0.291 0.146-0.437 0.437-0.437s0.437 0.146 0.437 0.437c0 0.291-0.146 0.437-0.437 0.437s-0.437-0.146-0.437-0.437zM19.897 14.323c-0.038 0.025-0.066 0.041-0.083 0.048l-0.031 0.018 4.217 2.395-12 6.856-12-6.856 4.217-2.395-4.217-2.409 4.217-2.395-4.217-2.409 12-6.814 12 6.814-4.217 2.409 4.217 2.395zM12 1.365l-10.235 5.812 10.236 5.848 10.235-5.848zM4.86 10.224l-3.096 1.758 0.594 0.339c0.084-0.068 0.174-0.103 0.271-0.103 0.291 0 0.437 0.146 0.437 0.437 0 0.009-0.002 0.020-0.006 0.034s-0.006 0.024-0.007 0.029l4.391 2.508c0.030-0.258 0.172-0.387 0.427-0.387 0.291 0 0.437 0.146 0.437 0.437 0 0.138-0.059 0.252-0.178 0.342l0.961 0.549c0.056-0.012 0.086-0.018 0.090-0.018 0.208 0 0.344 0.101 0.41 0.304l2.409 1.377 2.005-1.145c-0.013-0.056-0.020-0.089-0.020-0.099 0-0.291 0.146-0.437 0.437-0.437 0.117 0 0.218 0.041 0.303 0.124l0.988-0.565c-0.279-0.013-0.418-0.157-0.418-0.433 0-0.291 0.146-0.437 0.437-0.437s0.437 0.146 0.437 0.437c0 0.066-0.020 0.135-0.058 0.206l4.513-2.578c-0.058-0.081-0.087-0.164-0.087-0.248 0-0.291 0.146-0.437 0.437-0.437 0.187 0 0.319 0.086 0.397 0.258l0.866-0.495-3.334-1.893-0.14 0.080c-0.066 0.202-0.203 0.303-0.41 0.303-0.005 0-0.035-0.006-0.089-0.018l-0.962 0.549c0.118 0.089 0.177 0.203 0.177 0.342 0 0.291-0.146 0.437-0.437 0.437-0.254 0-0.396-0.129-0.427-0.386l-4.39 2.508c0.001 0.004 0.003 0.013 0.007 0.028s0.006 0.026 0.006 0.035c0 0.291-0.146 0.437-0.437 0.437s-0.437-0.146-0.437-0.437c0-0.084 0.029-0.167 0.086-0.248l-4.511-2.578c0.038 0.071 0.058 0.139 0.058 0.205 0 0.291-0.146 0.437-0.437 0.437s-0.437-0.146-0.437-0.437c0-0.275 0.139-0.42 0.417-0.433l-0.988-0.564c-0.085 0.082-0.186 0.124-0.302 0.124-0.179 0-0.309-0.083-0.39-0.248zM22.235 16.786l-3.334-1.893-6.901 3.943-6.902-3.943-3.334 1.893 10.235 5.848z" />
</svg>
