<?xml version="1.0" encoding="UTF-8" standalone="no"?>
<svg
   xmlns:dc="http://purl.org/dc/elements/1.1/"
   xmlns:cc="http://creativecommons.org/ns#"
   xmlns:rdf="http://www.w3.org/1999/02/22-rdf-syntax-ns#"
   xmlns:svg="http://www.w3.org/2000/svg"
   xmlns="http://www.w3.org/2000/svg"
   xml:space="preserve"
   enable-background="new 0 0 64 64"
   viewBox="0 0 24 24"
   height="24"
   width="24"
   y="0px"
   x="0px"
   id="Forma_1_1_"
   version="1.1"><metadata
     id="metadata12"><rdf:RDF><cc:Work
         rdf:about=""><dc:format>image/svg+xml</dc:format><dc:type
           rdf:resource="http://purl.org/dc/dcmitype/StillImage" /><dc:title></dc:title></cc:Work></rdf:RDF></metadata><defs
     id="defs10" /><g
     style="fill:none;fill-opacity:1;stroke:#000000;stroke-opacity:1"
     transform="matrix(0.34375,0,0,0.34375,1,1)"
     id="Forma_1"><g
       style="fill:none;fill-opacity:1;stroke:#000000;stroke-opacity:1"
       id="g4"><path
         style="fill:#4c4c4c;fill-opacity:1;stroke:none;stroke-opacity:1"
         id="path6"
         d="M 64,16.207 64,0 47.794,0 l 0,7.112 -31.586,0 L 16.208,0 0,0 l 0,16.207 7.112,0 0,31.586 -7.112,0 0,16.207 16.207,0 0,-7.111 31.587,0 0,7.111 16.206,0 0,-16.206 -7.11,0 0,-31.587 7.11,0 z m -62.015,-1.984 0,-12.238 12.237,0 0,12.238 -12.237,0 z m 12.238,47.794 -12.238,0 0,-12.24 12.238,0 0,12.24 z m 33.571,-7.113 -31.586,0 0,-7.11 -7.112,0 0,-31.587 7.112,0 0,-7.112 31.586,0 0,7.112 7.111,0 0,31.587 -7.111,0 0,7.11 z m 14.223,-5.127 0,12.239 -12.24,0 0,-12.239 12.24,0 z m -12.24,-35.555 0,-12.237 12.239,0 0,12.237 -12.239,0 z" /></g></g></svg>