<?xml version="1.0" encoding="UTF-8" standalone="no"?>
<svg
   xmlns:dc="http://purl.org/dc/elements/1.1/"
   xmlns:cc="http://creativecommons.org/ns#"
   xmlns:rdf="http://www.w3.org/1999/02/22-rdf-syntax-ns#"
   xmlns:svg="http://www.w3.org/2000/svg"
   xmlns="http://www.w3.org/2000/svg"
   id="svg2"
   version="1.1"
   viewBox="0 0 24 24"
   height="24"
   width="24">
  <metadata
     id="metadata38">
    <rdf:RDF>
      <cc:Work
         rdf:about="">
        <dc:format>image/svg+xml</dc:format>
        <dc:type
           rdf:resource="http://purl.org/dc/dcmitype/StillImage" />
        <dc:title>Icons / Calculator</dc:title>
      </cc:Work>
    </rdf:RDF>
  </metadata>
  <!-- Generator: Sketch 41.2 (35397) - http://www.bohemiancoding.com/sketch -->
  <title
     id="title4">Icons / Calculator</title>
  <desc
     id="desc6">Created with Sketch.</desc>
  <defs
     id="defs8" />
  <g
     transform="translate(1.9999998,2)"
     style="fill:none;fill-rule:evenodd;stroke:none;stroke-width:1"
     id="Welcome">
    <g
       style="fill:#4c4c4c"
       transform="translate(-58,-496)"
       id="T03.-Model-Edit">
      <g
         transform="translate(40,120)"
         id="Edit">
        <g
           transform="translate(18,376)"
           id="Icons-/-Calculator">
          <g
             id="calculator-1">
            <g
               id="Capa_1">
              <g
                 id="Group">
                <path
                   id="Shape"
                   d="M 18.5775,0 1.4225,0 C 0.75291667,0 0.20833333,0.436 0.20833333,0.97133333 l 0,18.05733367 C 0.20833333,19.564 0.75291667,20 1.4225,20 l 17.155,0 c 0.669583,0 1.214167,-0.436 1.214167,-0.971333 l 0,-18.05733367 C 19.791667,0.436 19.247083,0 18.5775,0 Z m 0.380833,19.028667 c 0,0.168 -0.170833,0.304666 -0.380833,0.304666 l -17.155,0 c -0.21,0 -0.3808333,-0.136666 -0.3808333,-0.304666 l 0,-18.05733367 c 0,-0.168 0.1708333,-0.30466666 0.3808333,-0.30466666 l 17.155,0 c 0.21,0 0.380833,0.13666666 0.380833,0.30466666 l 0,18.05733367 z" />
                <path
                   id="path18"
                   d="m 2.2916667,18.333333 4.5833333,0 0,-3.666666 -4.5833333,0 0,3.666666 z m 0.8333333,-3 2.9166667,0 0,2.333334 -2.9166667,0 0,-2.333334 z" />
                <path
                   id="path20"
                   d="m 7.7083333,18.333333 4.5833337,0 0,-3.666666 -4.5833337,0 0,3.666666 z m 0.8333334,-3 2.9166663,0 0,2.333334 -2.9166663,0 0,-2.333334 z" />
                <path
                   id="path22"
                   d="m 13.125,18.333333 4.583333,0 0,-8 -4.583333,0 0,8 z M 13.958333,11 16.875,11 l 0,6.666667 -2.916667,0 0,-6.666667 z" />
                <path
                   id="path24"
                   d="M 2.2916667,14 6.875,14 l 0,-3.666667 -4.5833333,0 0,3.666667 z M 3.125,11 l 2.9166667,0 0,2.333333 -2.9166667,0 L 3.125,11 Z" />
                <path
                   id="path26"
                   d="m 7.7083333,14 4.5833337,0 0,-3.666667 -4.5833337,0 0,3.666667 z m 0.8333334,-3 2.9166663,0 0,2.333333 -2.9166663,0 0,-2.333333 z" />
                <path
                   id="path28"
                   d="m 2.2916667,9.6666667 4.5833333,0 L 6.875,6 2.2916667,6 l 0,3.6666667 z m 0.8333333,-3 2.9166667,0 L 6.0416667,9 3.125,9 l 0,-2.3333333 z" />
                <path
                   id="path30"
                   d="m 7.7083333,9.6666667 4.5833337,0 0,-3.6666667 -4.5833337,0 0,3.6666667 z m 0.8333334,-3 2.9166663,0 0,2.3333333 -2.9166663,0 0,-2.3333333 z" />
                <path
                   id="path32"
                   d="m 13.125,9.6666667 4.583333,0 0,-3.6666667 -4.583333,0 0,3.6666667 z m 0.833333,-3 2.916667,0 0,2.3333333 -2.916667,0 0,-2.3333333 z" />
                <path
                   id="path34"
                   d="m 2.2916667,5 15.4166663,0 0,-3.3333333 -15.4166663,0 0,3.3333333 z M 3.125,2.3333333 l 13.75,0 0,2 -13.75,0 0,-2 z" />
              </g>
            </g>
          </g>
        </g>
      </g>
    </g>
  </g>
</svg>
