<?xml version="1.0" encoding="UTF-8" standalone="no"?>
<svg
   xmlns:dc="http://purl.org/dc/elements/1.1/"
   xmlns:cc="http://creativecommons.org/ns#"
   xmlns:rdf="http://www.w3.org/1999/02/22-rdf-syntax-ns#"
   xmlns:svg="http://www.w3.org/2000/svg"
   xmlns="http://www.w3.org/2000/svg"
   xmlns:xlink="http://www.w3.org/1999/xlink"
   id="svg2"
   version="1.1"
   viewBox="0 0 24 24"
   height="24"
   width="24">
  <metadata
     id="metadata23">
    <rdf:RDF>
      <cc:Work
         rdf:about="">
        <dc:format>image/svg+xml</dc:format>
        <dc:type
           rdf:resource="http://purl.org/dc/dcmitype/StillImage" />
        <dc:title>Buttons / Duplicate</dc:title>
      </cc:Work>
    </rdf:RDF>
  </metadata>
  <!-- Generator: Sketch 41.2 (35397) - http://www.bohemiancoding.com/sketch -->
  <title
     id="title4">Buttons / Duplicate</title>
  <desc
     id="desc6">Created with Sketch.</desc>
  <defs
     id="defs8">
    <rect
       height="30"
       width="30"
       y="0"
       x="0"
       id="path-1" />
    <mask
       fill="white"
       height="30"
       width="30"
       y="0"
       x="0"
       maskUnits="objectBoundingBox"
       maskContentUnits="userSpaceOnUse"
       id="mask-2">
      <use
         height="100%"
         width="100%"
         y="0"
         x="0"
         id="use12"
         xlink:href="#path-1" />
    </mask>
  </defs>
  <g
     transform="translate(0,-6)"
     style="fill:none;fill-rule:evenodd;stroke:none;stroke-width:1"
     id="Welcome">
    <g
       transform="translate(-128,-169)"
       id="T07.-Scenario-management">
      <path
         style="fill:#000000;fill-rule:evenodd;stroke:none;stroke-width:1"
         id="Duplicate-3"
         d="m 144.21818,187.88889 -2.90909,0 0,-2.96296 c 0,-0.16386 -0.13004,-0.2963 -0.29091,-0.2963 -0.16087,0 -0.29091,0.13244 -0.29091,0.2963 l 0,2.96296 -2.90909,0 c -0.16087,0 -0.29091,0.13244 -0.29091,0.29629 0,0.16386 0.13004,0.2963 0.29091,0.2963 l 2.90909,0 0,2.96296 c 0,0.16386 0.13004,0.2963 0.29091,0.2963 0.16087,0 0.29091,-0.13244 0.29091,-0.2963 l 0,-2.96296 2.90909,0 c 0.16087,0 0.29091,-0.13244 0.29091,-0.2963 0,-0.16385 -0.13004,-0.29629 -0.29091,-0.29629 z m 2.03636,-6.51852 0,-2.37037 -14.25454,0 0,13.92593 2.03636,0 0,2.07407 13.96364,0 0,-13.62963 -1.74546,0 z m -13.67272,10.96296 0,-12.74074 13.09091,0 0,1.77778 -11.63637,0 0,10.96296 -1.45454,0 z m 14.83636,2.07408 -12.8,0 0,-1.48148 0,-10.96297 11.63636,0 1.16364,0 0,12.44445 z" />
    </g>
  </g>
</svg>
