<?xml version="1.0" encoding="UTF-8" standalone="no"?>
<svg
   xmlns:dc="http://purl.org/dc/elements/1.1/"
   xmlns:cc="http://creativecommons.org/ns#"
   xmlns:rdf="http://www.w3.org/1999/02/22-rdf-syntax-ns#"
   xmlns:svg="http://www.w3.org/2000/svg"
   xmlns="http://www.w3.org/2000/svg"
   id="svg2"
   version="1.1"
   viewBox="0 0 24 24"
   height="24"
   width="24">
  <metadata
     id="metadata19">
    <rdf:RDF>
      <cc:Work
         rdf:about="">
        <dc:format>image/svg+xml</dc:format>
        <dc:type
           rdf:resource="http://purl.org/dc/dcmitype/StillImage" />
        <dc:title>Icons / Layers</dc:title>
      </cc:Work>
    </rdf:RDF>
  </metadata>
  <!-- Generator: Sketch 41.2 (35397) - http://www.bohemiancoding.com/sketch -->
  <title
     id="title4">Icons / Layers</title>
  <desc
     id="desc6">Created with Sketch.</desc>
  <defs
     id="defs8" />
  <g
     transform="translate(0.5098275,0.5100365)"
     style="fill:none;fill-rule:evenodd;stroke:none;stroke-width:1"
     id="Welcome">
    <g
       style="fill:#4c4c4c"
       transform="translate(-57,-230)"
       id="T03.-Model-Edit">
      <g
         transform="translate(40,120)"
         id="Edit">
        <g
           transform="translate(17,110)"
           id="Icons-/-Layers">
          <g
             id="layers">
            <g
               id="Capa_1">
              <path
                 id="Shape"
                 d="M 18.942382,9.1774182 22.980345,6.8703091 11.490382,0.345 0,6.8703091 4.0379636,9.1774182 0,11.470309 4.0379636,13.777418 0,16.070309 11.490382,22.634927 22.980345,16.070309 18.942382,13.777418 22.980345,11.470309 18.942382,9.1774182 Z m -7.452,-7.8706 L 21.290473,6.8724 11.490382,12.471854 1.6898727,6.8724 11.490382,1.3068182 Z M 4.8822727,9.6595818 11.490382,13.434927 18.098491,9.6595818 21.290473,11.4724 11.490382,17.071854 1.6898727,11.4724 4.8822727,9.6595818 Z M 21.290473,16.0724 11.490382,21.671854 1.6898727,16.0724 l 3.1924,-1.812818 6.6081093,3.775345 6.608109,-3.775345 3.191982,1.812818 z" />
            </g>
          </g>
        </g>
      </g>
    </g>
  </g>
</svg>
