<?xml version="1.0" encoding="UTF-8" standalone="no"?>
<svg
   xmlns:dc="http://purl.org/dc/elements/1.1/"
   xmlns:cc="http://creativecommons.org/ns#"
   xmlns:rdf="http://www.w3.org/1999/02/22-rdf-syntax-ns#"
   xmlns:svg="http://www.w3.org/2000/svg"
   xmlns="http://www.w3.org/2000/svg"
   id="svg2"
   version="1.1"
   viewBox="0 0 24 24"
   height="24"
   width="24">
  <metadata
     id="metadata22">
    <rdf:RDF>
      <cc:Work
         rdf:about="">
        <dc:format>image/svg+xml</dc:format>
        <dc:type
           rdf:resource="http://purl.org/dc/dcmitype/StillImage" />
        <dc:title>Icons / Boundary</dc:title>
      </cc:Work>
    </rdf:RDF>
  </metadata>
  <!-- Generator: Sketch 41.2 (35397) - http://www.bohemiancoding.com/sketch -->
  <title
     id="title4">Icons / Boundary</title>
  <desc
     id="desc6">Created with Sketch.</desc>
  <defs
     id="defs8" />
  <g
     transform="translate(4.0715761,1.0486)"
     style="fill:none;fill-rule:evenodd;stroke:none;stroke-width:1"
     id="Welcome">
    <g
       style="fill:#000000"
       transform="translate(-61,-267)"
       id="T03.-Model-Edit">
      <g
         transform="translate(40,120)"
         id="Edit">
        <g
           transform="translate(17,147)"
           id="Icons-/-Boundary">
          <g
             id="placeholder">
            <g
               id="Capa_1">
              <g
                 id="Group">
                <path
                   id="Shape"
                   d="m 12,10.4 c 1.544,0 2.8,-1.2564 2.8,-2.8 0,-1.5436 -1.256,-2.8 -2.8,-2.8 -1.544,0 -2.8,1.2564 -2.8,2.8 0,1.5436 1.256,2.8 2.8,2.8 z m 0,-4.8 c 1.1028,0 2,0.8972 2,2 0,1.1028 -0.8972,2 -2,2 -1.1028,0 -2,-0.8972 -2,-2 0,-1.1028 0.8972,-2 2,-2 z" />
                <path
                   id="path18"
                   d="M 11.9292,21.9028 18.0656,13.04 C 20.3672,9.9716 20.0344,4.928 17.3532,2.2472 15.9044,0.798 13.978,0 11.9292,0 9.8804,0 7.954,0.798 6.5052,2.2468 3.824,4.9276 3.4912,9.9712 5.7836,13.0276 l 6.1456,8.8752 z M 7.0708,2.8124 C 8.3688,1.5148 10.094,0.8 11.9292,0.8 c 1.8352,0 3.5604,0.7148 4.8584,2.0124 2.42,2.4196 2.718,6.9748 0.6292,9.7596 L 11.9292,20.4972 6.4328,12.56 C 4.3528,9.7872 4.6512,5.232 7.0708,2.8124 Z" />
              </g>
            </g>
          </g>
        </g>
      </g>
    </g>
  </g>
</svg>
