<?xml version="1.0" encoding="UTF-8" standalone="no"?>
<svg
   xmlns:dc="http://purl.org/dc/elements/1.1/"
   xmlns:cc="http://creativecommons.org/ns#"
   xmlns:rdf="http://www.w3.org/1999/02/22-rdf-syntax-ns#"
   xmlns:svg="http://www.w3.org/2000/svg"
   xmlns="http://www.w3.org/2000/svg"
   id="svg2"
   version="1.1"
   viewBox="0 0 24 24"
   height="24"
   width="24">
  <metadata
     id="metadata24">
    <rdf:RDF>
      <cc:Work
         rdf:about="">
        <dc:format>image/svg+xml</dc:format>
        <dc:type
           rdf:resource="http://purl.org/dc/dcmitype/StillImage" />
        <dc:title>Icons / Properties</dc:title>
      </cc:Work>
    </rdf:RDF>
  </metadata>
  <!-- Generator: Sketch 41.2 (35397) - http://www.bohemiancoding.com/sketch -->
  <title
     id="title4">Icons / Properties</title>
  <desc
     id="desc6">Created with Sketch.</desc>
  <defs
     id="defs8" />
  <g
     transform="translate(2.5,2)"
     style="fill:none;fill-rule:evenodd;stroke:none;stroke-width:1"
     id="Welcome">
    <g
       style="fill:#4c4c4c"
       transform="translate(-59,-459)"
       id="T03.-Model-Edit">
      <g
         transform="translate(40,120)"
         id="Edit">
        <g
           transform="translate(19,339)"
           id="Icons-/-Properties">
          <g
             id="controls-4">
            <g
               id="Capa_1">
              <g
                 id="Group">
                <path
                   id="Shape"
                   d="M 2.462963,5 C 3.7011296,5 4.7260741,4.0664286 4.8977778,2.8571429 l 13.7503702,0 C 18.842722,2.8571429 19,2.6975 19,2.5 19,2.3025 18.842722,2.1428571 18.648148,2.1428571 l -13.7503702,0 C 4.7260741,0.93357143 3.7011296,0 2.462963,0 1.1048148,0 0,1.1217857 0,2.5 0,3.8782143 1.1048148,5 2.462963,5 Z m 0,-4.28571429 c 0.9700555,0 1.7592592,0.80107139 1.7592592,1.78571429 0,0.9846429 -0.7892037,1.7857143 -1.7592592,1.7857143 -0.9700556,0 -1.7592593,-0.8010714 -1.7592593,-1.7857143 0,-0.9846429 0.7892037,-1.78571429 1.7592593,-1.78571429 z" />
                <path
                   id="path18"
                   d="m 16.537037,15 c -1.238167,0 -2.263111,0.933571 -2.434815,2.142857 l -13.75037015,0 C 0.15762963,17.142857 0,17.3025 0,17.5 c 0,0.1975 0.15762963,0.357143 0.35185185,0.357143 l 13.75037015,0 C 14.273926,19.066429 15.29887,20 16.537037,20 17.894833,20 19,18.878214 19,17.5 19,16.121786 17.894833,15 16.537037,15 Z m 0,4.285714 c -0.970055,0 -1.759259,-0.801071 -1.759259,-1.785714 0,-0.984643 0.789204,-1.785714 1.759259,-1.785714 0.970056,0 1.759259,0.801071 1.759259,1.785714 0,0.984643 -0.789203,1.785714 -1.759259,1.785714 z" />
                <path
                   id="path20"
                   d="m 18.648148,9.6428571 -6.555704,0 C 11.953111,8.3564286 10.876796,7.3521429 9.5728333,7.3521429 c -1.3039629,0 -2.3802777,1.0046428 -2.5196111,2.2907142 l -6.70137035,0 C 0.15762963,9.6428571 0,9.8025 0,10 c 0,0.1975 0.15762963,0.357143 0.35185185,0.357143 l 6.72353705,0 C 7.2784074,11.571429 8.319537,12.5 9.5728333,12.5 c 1.2532967,0 2.2940737,-0.928571 2.4970927,-2.142857 l 6.578222,0 C 18.842722,10.357143 19,10.1975 19,10 19,9.8025 18.842722,9.6428571 18.648148,9.6428571 Z M 9.5728333,11.785714 c -1.0101666,0 -1.8320926,-0.834285 -1.8320926,-1.8596426 0,-1.0253571 0.821926,-1.8596428 1.8320926,-1.8596428 1.0101667,0 1.8320927,0.8342857 1.8320927,1.8596428 0,1.0253576 -0.821926,1.8596426 -1.8320927,1.8596426 z" />
              </g>
            </g>
          </g>
        </g>
      </g>
    </g>
  </g>
</svg>
