<?xml version="1.0" encoding="UTF-8" standalone="no"?>
<svg
   xmlns:dc="http://purl.org/dc/elements/1.1/"
   xmlns:cc="http://creativecommons.org/ns#"
   xmlns:rdf="http://www.w3.org/1999/02/22-rdf-syntax-ns#"
   xmlns:svg="http://www.w3.org/2000/svg"
   xmlns="http://www.w3.org/2000/svg"
   xmlns:xlink="http://www.w3.org/1999/xlink"
   id="svg2"
   version="1.1"
   viewBox="0 0 24 24"
   height="24"
   width="24">
  <metadata
     id="metadata26">
    <rdf:RDF>
      <cc:Work
         rdf:about="">
        <dc:format>image/svg+xml</dc:format>
        <dc:type
           rdf:resource="http://purl.org/dc/dcmitype/StillImage" />
        <dc:title>Buttons / Delete</dc:title>
      </cc:Work>
    </rdf:RDF>
  </metadata>
  <!-- Generator: Sketch 41.2 (35397) - http://www.bohemiancoding.com/sketch -->
  <title
     id="title4">Buttons / Delete</title>
  <desc
     id="desc6">Created with Sketch.</desc>
  <defs
     id="defs8">
    <rect
       height="30"
       width="30"
       y="0"
       x="0"
       id="path-1" />
    <mask
       fill="white"
       height="30"
       width="30"
       y="0"
       x="0"
       maskUnits="objectBoundingBox"
       maskContentUnits="userSpaceOnUse"
       id="mask-2">
      <use
         height="100%"
         width="100%"
         y="0"
         x="0"
         id="use12"
         xlink:href="#path-1" />
    </mask>
  </defs>
  <path
     id="Combined-Shape-3"
     d="m 12,17.830509 c 0.146449,0 0.265306,-0.121221 0.265306,-0.271187 l 0,-8.9491525 c 0,-0.1499661 -0.118857,-0.2711864 -0.265306,-0.2711864 -0.146449,0 -0.265306,0.1212203 -0.265306,0.2711864 l 0,8.9491525 c 0,0.149966 0.118857,0.271187 0.265306,0.271187 z m -2.653061,0 c 0.146449,0 0.265306,-0.121221 0.265306,-0.271187 l 0,-8.9491525 c 0,-0.1499661 -0.118857,-0.2711864 -0.265306,-0.2711864 -0.146449,0 -0.265306,0.1212203 -0.265306,0.2711864 l 0,8.9491525 c 0,0.149966 0.118857,0.271187 0.265306,0.271187 z m 5.306122,0 c 0.146449,0 0.265306,-0.121221 0.265306,-0.271187 l 0,-8.9491525 c 0,-0.1499661 -0.118857,-0.2711864 -0.265306,-0.2711864 -0.146449,0 -0.265306,0.1212203 -0.265306,0.2711864 l 0,8.9491525 c 0,0.149966 0.118857,0.271187 0.265306,0.271187 z m 3.44898,-12.2033904 -3.725959,0 c -0.02918,-0.338983 -0.131327,-0.910644 -0.481,-1.2775593 C 13.673816,4.1176949 13.393122,4 13.060959,4 L 10.408163,4 C 10.076,4 9.795306,4.1176949 9.574041,4.3495593 9.224367,4.7164746 9.122225,5.2881356 9.093041,5.6271186 l -3.195082,0 c -0.146449,0 -0.265306,0.1212204 -0.265306,0.2711865 0,0.1499661 0.118857,0.2711864 0.265306,0.2711864 l 0.54149,0 L 6.94751,18.649763 C 6.95731,19.116746 7.241735,20 8.249633,20 l 7.500734,0 c 1.007898,0 1.292306,-0.883254 1.301857,-1.344542 l 0.508327,-12.4859665 0.54149,0 c 0.146449,0 0.265306,-0.1212203 0.265306,-0.2711864 0,-0.1499661 -0.118857,-0.2711865 -0.265306,-0.2711865 z M 9.95502,4.7270508 c 0.118858,-0.1242034 0.267164,-0.1846779 0.453143,-0.1846779 l 2.652796,0 c 0.18598,0 0.334286,0.060475 0.453143,0.1846779 0.213572,0.2231865 0.299265,0.6158644 0.32898,0.9000678 l -4.216776,0 C 9.656016,5.3429152 9.741714,4.9502373 9.95502,4.7270508 Z m 6.566858,13.9113222 c -0.0016,0.0838 -0.0382,0.819254 -0.771511,0.819254 l -7.500734,0 c -0.725347,0 -0.768857,-0.736813 -0.771776,-0.824949 l -0.50753,-12.4631865 10.059081,0 -0.50753,12.4688815 z"
     style="fill:#4c4c4c;fill-rule:evenodd;stroke:none;stroke-width:1" />
</svg>
