<?xml version="1.0" encoding="utf-8"?>
<!-- Generator: Adobe Illustrator 16.0.4, SVG Export Plug-In . SVG Version: 6.00 Build 0)  -->
<!DOCTYPE svg PUBLIC "-//W3C//DTD SVG 1.1//EN" "http://www.w3.org/Graphics/SVG/1.1/DTD/svg11.dtd">
<svg version="1.1" id="Layer_1" xmlns="http://www.w3.org/2000/svg" xmlns:xlink="http://www.w3.org/1999/xlink" x="0px" y="0px"
	 width="95.174px" height="57.767px" viewBox="494.436 300.103 95.174 57.767"
	 enable-background="new 494.436 300.103 95.174 57.767" xml:space="preserve">
<line fill="none" stroke="#000000" stroke-width="0.5" stroke-miterlimit="8" x1="494.437" y1="357.587" x2="589.684" y2="357.587"/>
<line fill="none" stroke="#00B0F0" stroke-width="0.5" stroke-miterlimit="8" x1="573.135" y1="345.781" x2="589.684" y2="345.781"/>
<path fill="none" stroke="#00B0F0" stroke-width="0.5" stroke-miterlimit="8" d="M510.436,331.751
	c4.226-2.507,6.256-3.378,9.633-4.042c3.377-0.663,6.254-0.97,9.254-1.456c3.001-0.488,7.439,0.212,8.379,0.343
	c0.939,0.132,34.253,10.047,35.427,18.992"/>
<path fill="none" stroke="#000000" stroke-width="0.5" stroke-miterlimit="8" d="M510.342,331.729
	c1.903-4.415,3.633-4.925,5.837-6.766c2.204-1.84,8.006-3.947,12.07-4.824s8.24-1.059,12.316-0.438s10.569,3.215,12.139,4.16
	c1.569,0.946,20.431,9.505,20.431,22.558"/>
<path fill="none" stroke="#000000" stroke-width="0.5" stroke-miterlimit="8" d="M589.953,353.468
	c-8.462,0.395-15.954-2.754-16.734-7.032c-0.044-0.237-0.065-0.476-0.065-0.714"/>
<path fill="none" stroke="#000000" stroke-width="0.5" stroke-miterlimit="8" d="M510.477,331.315
	c-1.188,5.808-8.123,9.755-15.489,8.817c-0.169-0.021-0.339-0.046-0.509-0.072"/>
<line fill="none" stroke="#00B0F0" stroke-width="0.5" stroke-miterlimit="8" x1="494.436" y1="331.793" x2="510.644" y2="331.793"/>
<line fill="none" stroke="#000000" stroke-width="0.25" stroke-miterlimit="8" stroke-dasharray="4,3" x1="532.657" y1="326.082" x2="532.657" y2="357.587"/>
<line fill="none" stroke="#000000" stroke-width="0.5" stroke-miterlimit="8" x1="494.436" y1="331.793" x2="494.437" y2="357.587"/>
<line fill="none" stroke="#000000" stroke-width="0.5" stroke-miterlimit="8" x1="589.61" y1="345.781" x2="589.61" y2="357.587"/>
<ellipse fill="#FFFFFF" cx="532.526" cy="342.115" rx="4.343" ry="4.224"/>
<ellipse fill="none" stroke="#000000" stroke-width="0.25" stroke-linejoin="round" stroke-miterlimit="10" cx="532.526" cy="342.115" rx="4.343" ry="4.224"/>
<g>
	<path d="M532.182,343.677v-0.648c0.004-0.096,0.034-0.186,0.09-0.27c0.057-0.084,0.125-0.166,0.207-0.248s0.171-0.166,0.268-0.25
		c0.096-0.084,0.185-0.172,0.267-0.264s0.15-0.189,0.204-0.295c0.054-0.104,0.081-0.219,0.081-0.348c0-0.139-0.028-0.256-0.084-0.35
		c-0.057-0.096-0.129-0.17-0.219-0.227c-0.091-0.055-0.193-0.094-0.31-0.117c-0.116-0.021-0.236-0.031-0.359-0.031
		c-0.097,0-0.191,0.008-0.285,0.023c-0.095,0.016-0.188,0.037-0.279,0.066v-0.367c0.108-0.031,0.217-0.053,0.327-0.066
		c0.109-0.012,0.221-0.018,0.333-0.018c0.168,0,0.329,0.021,0.482,0.066c0.154,0.045,0.289,0.109,0.405,0.197
		s0.208,0.199,0.276,0.334c0.067,0.133,0.102,0.293,0.102,0.477c0,0.129-0.016,0.24-0.048,0.34
		c-0.032,0.098-0.077,0.189-0.135,0.275c-0.059,0.086-0.124,0.168-0.198,0.246s-0.153,0.156-0.237,0.236
		c-0.107,0.113-0.196,0.201-0.267,0.268s-0.126,0.125-0.168,0.178c-0.042,0.051-0.07,0.104-0.084,0.158s-0.018,0.125-0.009,0.213
		v0.42H532.182z M532.602,344.175v0.516h-0.479v-0.516H532.602z"/>
</g>
<rect x="494.433" y="314.792" fill="#00B050" width="41.247" height="7.584"/>
<g>
	<path fill="#FFFFFF" d="M498.453,318.388c-0.016-0.232-0.094-0.404-0.233-0.516c-0.141-0.111-0.337-0.168-0.589-0.168
		c-0.14,0-0.265,0.033-0.375,0.102c-0.109,0.068-0.202,0.16-0.278,0.273s-0.135,0.246-0.178,0.398
		c-0.042,0.152-0.062,0.314-0.062,0.486s0.021,0.336,0.062,0.488c0.043,0.154,0.102,0.289,0.178,0.406
		c0.076,0.115,0.169,0.207,0.278,0.275c0.11,0.068,0.235,0.102,0.375,0.102c0.236,0,0.429-0.064,0.576-0.193
		c0.148-0.131,0.23-0.301,0.246-0.508h0.391c-0.097,0.688-0.488,1.031-1.177,1.031c-0.224,0-0.419-0.045-0.585-0.135
		s-0.303-0.209-0.411-0.357c-0.107-0.146-0.188-0.316-0.242-0.51c-0.055-0.191-0.081-0.389-0.081-0.594
		c0-0.203,0.027-0.402,0.084-0.594c0.056-0.191,0.14-0.361,0.252-0.51c0.111-0.148,0.252-0.268,0.42-0.357s0.363-0.135,0.588-0.135
		c0.156,0,0.302,0.023,0.438,0.068c0.137,0.047,0.256,0.113,0.36,0.199c0.104,0.086,0.187,0.191,0.249,0.318
		c0.062,0.125,0.097,0.268,0.105,0.428H498.453z"/>
	<path fill="#FFFFFF" d="M500.74,317.374c0.24,0,0.448,0.047,0.624,0.139s0.322,0.213,0.438,0.363
		c0.115,0.148,0.201,0.32,0.258,0.512c0.056,0.191,0.084,0.387,0.084,0.582c0,0.201-0.028,0.395-0.084,0.586
		c-0.057,0.189-0.143,0.359-0.258,0.51c-0.116,0.15-0.263,0.271-0.438,0.363s-0.384,0.137-0.624,0.137s-0.448-0.045-0.624-0.137
		s-0.322-0.213-0.438-0.363c-0.116-0.15-0.202-0.32-0.259-0.51c-0.056-0.191-0.084-0.385-0.084-0.586
		c0-0.195,0.028-0.391,0.084-0.582c0.057-0.191,0.143-0.363,0.259-0.512c0.115-0.15,0.262-0.271,0.438-0.363
		S500.499,317.374,500.74,317.374z M501.753,318.97c0-0.139-0.019-0.285-0.057-0.436c-0.038-0.148-0.097-0.285-0.177-0.406
		c-0.08-0.123-0.186-0.225-0.315-0.305s-0.285-0.119-0.465-0.119s-0.335,0.039-0.465,0.119s-0.235,0.182-0.315,0.305
		c-0.08,0.121-0.139,0.258-0.177,0.406c-0.038,0.15-0.057,0.297-0.057,0.436c0,0.141,0.019,0.285,0.057,0.436
		s0.097,0.285,0.177,0.408c0.08,0.121,0.186,0.223,0.315,0.303s0.285,0.119,0.465,0.119s0.335-0.039,0.465-0.119
		s0.235-0.182,0.315-0.303c0.08-0.123,0.139-0.258,0.177-0.408S501.753,319.111,501.753,318.97z"/>
	<path fill="#FFFFFF" d="M503.247,320.476h-0.359v-2.334c0-0.115-0.004-0.232-0.01-0.348s-0.013-0.227-0.021-0.33h0.372l0.018,0.443
		l0.012,0.014c0.104-0.189,0.238-0.326,0.402-0.414s0.344-0.133,0.54-0.133c0.164,0,0.304,0.021,0.42,0.066
		c0.116,0.043,0.213,0.102,0.291,0.17c0.078,0.07,0.142,0.15,0.189,0.24s0.084,0.18,0.107,0.27c0.024,0.092,0.039,0.178,0.045,0.262
		s0.01,0.154,0.01,0.211v1.883h-0.36v-1.943c0-0.264-0.07-0.469-0.21-0.611c-0.141-0.145-0.334-0.217-0.582-0.217
		c-0.148,0-0.276,0.029-0.384,0.088c-0.108,0.057-0.198,0.135-0.271,0.23s-0.125,0.205-0.159,0.33
		c-0.033,0.123-0.051,0.254-0.051,0.389V320.476z"/>
	<path fill="#FFFFFF" d="M506.121,318.214c0-0.156,0.033-0.287,0.099-0.393c0.066-0.105,0.151-0.191,0.256-0.258
		c0.104-0.066,0.222-0.115,0.354-0.145s0.264-0.045,0.396-0.045c0.144,0,0.278,0.014,0.404,0.043
		c0.126,0.027,0.239,0.072,0.339,0.137c0.101,0.064,0.182,0.15,0.243,0.256c0.062,0.105,0.1,0.238,0.111,0.398h-0.39
		c-0.009-0.096-0.034-0.176-0.078-0.24s-0.101-0.115-0.168-0.152c-0.068-0.039-0.146-0.066-0.231-0.084s-0.175-0.027-0.267-0.027
		c-0.084,0-0.167,0.01-0.249,0.027s-0.154,0.045-0.216,0.084c-0.062,0.037-0.113,0.088-0.153,0.15
		c-0.04,0.061-0.061,0.137-0.061,0.225c0,0.111,0.035,0.197,0.105,0.254c0.07,0.059,0.166,0.107,0.288,0.148
		c0.122,0.039,0.269,0.08,0.44,0.119c0.173,0.041,0.36,0.096,0.564,0.168c0.156,0.057,0.28,0.146,0.372,0.27
		c0.092,0.125,0.138,0.27,0.138,0.434c0,0.168-0.036,0.312-0.107,0.438c-0.072,0.123-0.167,0.227-0.285,0.309
		s-0.253,0.143-0.405,0.18c-0.152,0.039-0.308,0.057-0.468,0.057c-0.132,0-0.264-0.016-0.396-0.047
		c-0.132-0.033-0.252-0.084-0.359-0.156c-0.108-0.072-0.197-0.166-0.268-0.283c-0.069-0.115-0.106-0.258-0.11-0.426h0.39
		c0.008,0.113,0.037,0.205,0.087,0.279s0.113,0.135,0.189,0.18c0.075,0.047,0.161,0.078,0.258,0.098
		c0.096,0.018,0.195,0.025,0.3,0.025c0.096,0,0.191-0.012,0.285-0.035s0.178-0.061,0.252-0.107c0.074-0.049,0.134-0.111,0.18-0.188
		c0.046-0.074,0.069-0.166,0.069-0.27c0-0.107-0.027-0.195-0.081-0.264s-0.126-0.123-0.216-0.164
		c-0.09-0.043-0.192-0.076-0.307-0.104c-0.113-0.025-0.23-0.053-0.351-0.08s-0.237-0.061-0.351-0.096
		c-0.114-0.037-0.217-0.084-0.307-0.145s-0.162-0.135-0.216-0.225S506.121,318.355,506.121,318.214z"/>
	<path fill="#FFFFFF" d="M509.482,317.794h-0.601v-0.33h0.601v-0.643l0.359-0.154v0.797h0.685v0.33h-0.685v2.016
		c-0.008,0.285,0.13,0.426,0.414,0.426c0.057,0,0.11-0.002,0.162-0.006s0.103-0.014,0.15-0.029v0.312
		c-0.057,0.016-0.116,0.029-0.181,0.039c-0.063,0.01-0.126,0.014-0.186,0.014c-0.192,0-0.337-0.025-0.435-0.08
		c-0.099-0.055-0.168-0.125-0.21-0.213s-0.065-0.184-0.069-0.289c-0.004-0.104-0.006-0.207-0.006-0.311V317.794z"/>
	<path fill="#FFFFFF" d="M513.051,318.353c-0.02-0.248-0.09-0.418-0.21-0.51s-0.288-0.139-0.504-0.139
		c-0.096,0-0.186,0.008-0.27,0.023s-0.159,0.045-0.226,0.084c-0.065,0.041-0.119,0.094-0.161,0.162s-0.069,0.152-0.081,0.252h-0.385
		c0.024-0.156,0.069-0.287,0.136-0.396c0.065-0.107,0.147-0.195,0.245-0.264c0.099-0.066,0.211-0.117,0.34-0.146
		c0.128-0.029,0.264-0.045,0.407-0.045c0.332,0,0.595,0.08,0.786,0.24c0.192,0.16,0.286,0.412,0.282,0.756v1.428
		c-0.004,0.117-0.002,0.232,0.006,0.348c0.008,0.117,0.017,0.227,0.024,0.33h-0.372l-0.012-0.443h-0.013l-0.018,0.041
		c-0.032,0.064-0.08,0.125-0.145,0.184c-0.063,0.059-0.138,0.109-0.222,0.156s-0.176,0.082-0.276,0.111
		c-0.1,0.027-0.199,0.041-0.3,0.041c-0.14,0-0.271-0.02-0.393-0.062c-0.122-0.041-0.229-0.104-0.318-0.184s-0.161-0.176-0.213-0.291
		c-0.052-0.113-0.078-0.244-0.078-0.393c0-0.203,0.056-0.381,0.168-0.531s0.258-0.262,0.438-0.338c0.1-0.045,0.207-0.076,0.32-0.094
		c0.114-0.018,0.23-0.029,0.349-0.033s0.235-0.004,0.354-0.002s0.231-0.002,0.339-0.01V318.353z M511.474,319.636
		c0,0.205,0.066,0.355,0.2,0.453c0.135,0.098,0.293,0.146,0.478,0.146c0.195,0,0.354-0.037,0.477-0.109
		c0.122-0.074,0.216-0.172,0.282-0.291c0.066-0.121,0.108-0.258,0.126-0.412s0.023-0.309,0.015-0.465
		c-0.128,0.004-0.281,0.006-0.462,0.006c-0.18,0-0.353,0.018-0.519,0.055c-0.166,0.035-0.308,0.1-0.423,0.195
		C511.531,319.308,511.474,319.448,511.474,319.636z"/>
	<path fill="#FFFFFF" d="M514.707,320.476h-0.359v-2.334c0-0.115-0.004-0.232-0.01-0.348s-0.013-0.227-0.021-0.33h0.372l0.018,0.443
		l0.012,0.014c0.104-0.189,0.238-0.326,0.402-0.414s0.344-0.133,0.54-0.133c0.164,0,0.304,0.021,0.42,0.066
		c0.116,0.043,0.213,0.102,0.291,0.17c0.078,0.07,0.142,0.15,0.189,0.24s0.084,0.18,0.107,0.27c0.024,0.092,0.039,0.178,0.045,0.262
		s0.01,0.154,0.01,0.211v1.883h-0.36v-1.943c0-0.264-0.07-0.469-0.21-0.611c-0.141-0.145-0.334-0.217-0.582-0.217
		c-0.148,0-0.276,0.029-0.384,0.088c-0.108,0.057-0.198,0.135-0.271,0.23s-0.125,0.205-0.159,0.33
		c-0.033,0.123-0.051,0.254-0.051,0.389V320.476z"/>
	<path fill="#FFFFFF" d="M517.942,317.794h-0.601v-0.33h0.601v-0.643l0.359-0.154v0.797h0.685v0.33h-0.685v2.016
		c-0.008,0.285,0.13,0.426,0.414,0.426c0.057,0,0.11-0.002,0.162-0.006s0.103-0.014,0.15-0.029v0.312
		c-0.057,0.016-0.116,0.029-0.181,0.039c-0.063,0.01-0.126,0.014-0.186,0.014c-0.192,0-0.337-0.025-0.435-0.08
		c-0.099-0.055-0.168-0.125-0.21-0.213s-0.065-0.184-0.069-0.289c-0.004-0.104-0.006-0.207-0.006-0.311V317.794z"/>
	<path fill="#FFFFFF" d="M521.715,317.921h0.012c0.104-0.189,0.238-0.326,0.402-0.414s0.344-0.133,0.54-0.133
		c0.164,0,0.304,0.021,0.42,0.066c0.116,0.043,0.213,0.102,0.291,0.17c0.078,0.07,0.142,0.15,0.189,0.24s0.084,0.18,0.107,0.27
		c0.024,0.092,0.039,0.178,0.045,0.262s0.01,0.154,0.01,0.211v1.883h-0.36v-1.943c0-0.264-0.07-0.469-0.21-0.611
		c-0.141-0.145-0.334-0.217-0.582-0.217c-0.148,0-0.276,0.029-0.384,0.088c-0.108,0.057-0.198,0.135-0.271,0.23
		s-0.125,0.205-0.159,0.33c-0.033,0.123-0.051,0.254-0.051,0.389v1.734h-0.359v-4.332h0.359V317.921z"/>
	<path fill="#FFFFFF" d="M524.902,319.054c0.004,0.16,0.025,0.312,0.065,0.457c0.04,0.143,0.103,0.27,0.187,0.377
		s0.19,0.193,0.32,0.256s0.287,0.092,0.472,0.092c0.107,0,0.209-0.018,0.303-0.053c0.094-0.037,0.18-0.086,0.258-0.15
		s0.143-0.141,0.195-0.229c0.052-0.088,0.09-0.184,0.113-0.287h0.379c-0.093,0.363-0.252,0.629-0.478,0.797
		s-0.521,0.252-0.885,0.252c-0.225,0-0.419-0.045-0.585-0.135s-0.303-0.209-0.411-0.357c-0.108-0.146-0.189-0.316-0.243-0.51
		c-0.054-0.191-0.081-0.389-0.081-0.594c0-0.203,0.028-0.402,0.084-0.594c0.057-0.191,0.141-0.361,0.252-0.51
		c0.112-0.148,0.252-0.268,0.42-0.357s0.364-0.135,0.588-0.135c0.253,0,0.466,0.043,0.64,0.129s0.315,0.205,0.426,0.357
		s0.189,0.33,0.237,0.533c0.048,0.205,0.071,0.424,0.071,0.66H524.902z M526.839,318.724c-0.012-0.145-0.04-0.279-0.084-0.404
		c-0.044-0.127-0.106-0.234-0.186-0.324c-0.08-0.09-0.18-0.16-0.298-0.213c-0.117-0.053-0.255-0.078-0.41-0.078
		c-0.148,0-0.278,0.027-0.391,0.084c-0.111,0.057-0.207,0.133-0.285,0.229c-0.077,0.096-0.14,0.205-0.186,0.326
		c-0.046,0.123-0.075,0.25-0.087,0.381H526.839z"/>
	<path fill="#FFFFFF" d="M529.731,318.353c-0.02-0.248-0.09-0.418-0.21-0.51s-0.288-0.139-0.504-0.139
		c-0.096,0-0.186,0.008-0.27,0.023s-0.159,0.045-0.226,0.084c-0.065,0.041-0.119,0.094-0.161,0.162s-0.069,0.152-0.081,0.252h-0.385
		c0.024-0.156,0.069-0.287,0.136-0.396c0.065-0.107,0.147-0.195,0.245-0.264c0.099-0.066,0.211-0.117,0.34-0.146
		c0.128-0.029,0.264-0.045,0.407-0.045c0.332,0,0.595,0.08,0.786,0.24c0.192,0.16,0.286,0.412,0.282,0.756v1.428
		c-0.004,0.117-0.002,0.232,0.006,0.348c0.008,0.117,0.017,0.227,0.024,0.33h-0.372l-0.012-0.443h-0.013l-0.018,0.041
		c-0.032,0.064-0.08,0.125-0.145,0.184c-0.063,0.059-0.138,0.109-0.222,0.156s-0.176,0.082-0.276,0.111
		c-0.1,0.027-0.199,0.041-0.3,0.041c-0.14,0-0.271-0.02-0.393-0.062c-0.122-0.041-0.229-0.104-0.318-0.184s-0.161-0.176-0.213-0.291
		c-0.052-0.113-0.078-0.244-0.078-0.393c0-0.203,0.056-0.381,0.168-0.531s0.258-0.262,0.438-0.338c0.1-0.045,0.207-0.076,0.32-0.094
		c0.114-0.018,0.23-0.029,0.349-0.033s0.235-0.004,0.354-0.002s0.231-0.002,0.339-0.01V318.353z M528.154,319.636
		c0,0.205,0.066,0.355,0.2,0.453c0.135,0.098,0.293,0.146,0.478,0.146c0.195,0,0.354-0.037,0.477-0.109
		c0.122-0.074,0.216-0.172,0.282-0.291c0.066-0.121,0.108-0.258,0.126-0.412s0.023-0.309,0.015-0.465
		c-0.128,0.004-0.281,0.006-0.462,0.006c-0.18,0-0.353,0.018-0.519,0.055c-0.166,0.035-0.308,0.1-0.423,0.195
		C528.211,319.308,528.154,319.448,528.154,319.636z"/>
	<path fill="#FFFFFF" d="M533.103,320.032l-0.012-0.023c-0.124,0.18-0.274,0.316-0.45,0.414c-0.176,0.096-0.37,0.143-0.582,0.143
		c-0.224,0-0.414-0.047-0.569-0.143c-0.156-0.098-0.284-0.223-0.385-0.375c-0.1-0.154-0.172-0.328-0.216-0.52
		s-0.065-0.383-0.065-0.57c0-0.195,0.021-0.389,0.065-0.576s0.116-0.357,0.216-0.506c0.101-0.15,0.229-0.271,0.385-0.363
		c0.155-0.092,0.346-0.139,0.569-0.139c0.2,0,0.396,0.047,0.588,0.141c0.192,0.094,0.34,0.229,0.444,0.406l0.012-0.014v-1.764h0.36
		v3.654c0,0.117,0.003,0.232,0.009,0.348c0.006,0.117,0.013,0.227,0.021,0.33h-0.372L533.103,320.032z M533.091,318.898
		c0-0.15-0.018-0.299-0.054-0.443s-0.093-0.271-0.171-0.381s-0.179-0.199-0.301-0.268s-0.271-0.102-0.446-0.102
		c-0.172,0-0.316,0.035-0.433,0.107c-0.115,0.072-0.209,0.166-0.278,0.283c-0.07,0.115-0.12,0.246-0.15,0.389
		c-0.03,0.145-0.045,0.289-0.045,0.434c0,0.139,0.012,0.287,0.036,0.439c0.023,0.154,0.067,0.297,0.132,0.426
		c0.063,0.131,0.151,0.238,0.261,0.324c0.11,0.086,0.251,0.129,0.423,0.129c0.196,0,0.36-0.037,0.492-0.113s0.237-0.176,0.315-0.301
		c0.078-0.123,0.134-0.266,0.168-0.426S533.091,319.07,533.091,318.898z"/>
</g>
<rect x="521.298" y="300.103" fill="#0070C0" width="26.507" height="7.572"/>
<g>
	<path fill="#FFFFFF" d="M523.661,305.447h-0.359v-2.334c0.004-0.115,0.002-0.232-0.007-0.348c-0.008-0.115-0.016-0.227-0.023-0.33
		h0.372l0.018,0.443h0.012c0.057-0.15,0.146-0.275,0.268-0.375c0.122-0.098,0.259-0.15,0.411-0.158
		c0.06-0.004,0.12-0.006,0.18-0.004c0.06,0.004,0.12,0.006,0.18,0.01v0.348c-0.036-0.004-0.072-0.008-0.11-0.014
		s-0.075-0.01-0.111-0.01c-0.268,0-0.471,0.088-0.609,0.264c-0.138,0.176-0.211,0.408-0.219,0.697V305.447z"/>
	<path fill="#FFFFFF" d="M525.516,304.025c0.004,0.16,0.025,0.312,0.065,0.457c0.04,0.143,0.103,0.27,0.187,0.377
		s0.19,0.193,0.32,0.256s0.287,0.092,0.472,0.092c0.107,0,0.209-0.018,0.303-0.053c0.094-0.037,0.18-0.086,0.258-0.15
		s0.143-0.141,0.195-0.229c0.052-0.088,0.09-0.184,0.113-0.287h0.379c-0.093,0.363-0.252,0.629-0.478,0.797
		s-0.521,0.252-0.885,0.252c-0.225,0-0.419-0.045-0.585-0.135s-0.303-0.209-0.411-0.357c-0.108-0.146-0.189-0.316-0.243-0.51
		c-0.054-0.191-0.081-0.389-0.081-0.594c0-0.203,0.028-0.402,0.084-0.594c0.057-0.191,0.141-0.361,0.252-0.51
		c0.112-0.148,0.252-0.268,0.42-0.357s0.364-0.135,0.588-0.135c0.253,0,0.466,0.043,0.64,0.129s0.315,0.205,0.426,0.357
		s0.189,0.33,0.237,0.533c0.048,0.205,0.071,0.424,0.071,0.66H525.516z M527.453,303.695c-0.012-0.145-0.04-0.279-0.084-0.404
		c-0.044-0.127-0.106-0.234-0.186-0.324c-0.08-0.09-0.18-0.16-0.298-0.213c-0.117-0.053-0.255-0.078-0.41-0.078
		c-0.148,0-0.278,0.027-0.391,0.084c-0.111,0.057-0.207,0.133-0.285,0.229c-0.077,0.096-0.14,0.205-0.186,0.326
		c-0.046,0.123-0.075,0.25-0.087,0.381H527.453z"/>
	<path fill="#FFFFFF" d="M530.543,303.359c-0.016-0.232-0.094-0.404-0.233-0.516c-0.141-0.111-0.337-0.168-0.589-0.168
		c-0.14,0-0.265,0.033-0.375,0.102c-0.109,0.068-0.202,0.16-0.278,0.273s-0.135,0.246-0.178,0.398
		c-0.042,0.152-0.062,0.314-0.062,0.486s0.021,0.336,0.062,0.488c0.043,0.154,0.102,0.289,0.178,0.406
		c0.076,0.115,0.169,0.207,0.278,0.275c0.11,0.068,0.235,0.102,0.375,0.102c0.236,0,0.429-0.064,0.576-0.193
		c0.148-0.131,0.23-0.301,0.246-0.508h0.391c-0.097,0.688-0.488,1.031-1.177,1.031c-0.224,0-0.419-0.045-0.585-0.135
		s-0.303-0.209-0.411-0.357c-0.107-0.146-0.188-0.316-0.242-0.51c-0.055-0.191-0.081-0.389-0.081-0.594
		c0-0.203,0.027-0.402,0.084-0.594c0.056-0.191,0.14-0.361,0.252-0.51c0.111-0.148,0.252-0.268,0.42-0.357s0.363-0.135,0.588-0.135
		c0.156,0,0.302,0.023,0.438,0.068c0.137,0.047,0.256,0.113,0.36,0.199c0.104,0.086,0.187,0.191,0.249,0.318
		c0.062,0.125,0.097,0.268,0.105,0.428H530.543z"/>
	<path fill="#FFFFFF" d="M531.701,302.892h0.012c0.104-0.189,0.238-0.326,0.402-0.414s0.344-0.133,0.54-0.133
		c0.164,0,0.304,0.021,0.42,0.066c0.116,0.043,0.213,0.102,0.291,0.17c0.078,0.07,0.142,0.15,0.189,0.24s0.084,0.18,0.107,0.27
		c0.024,0.092,0.039,0.178,0.045,0.262s0.01,0.154,0.01,0.211v1.883h-0.36v-1.943c0-0.264-0.07-0.469-0.21-0.611
		c-0.141-0.145-0.334-0.217-0.582-0.217c-0.148,0-0.276,0.029-0.384,0.088c-0.108,0.057-0.198,0.135-0.271,0.23
		s-0.125,0.205-0.159,0.33c-0.033,0.123-0.051,0.254-0.051,0.389v1.734h-0.359v-4.332h0.359V302.892z"/>
	<path fill="#FFFFFF" d="M536.381,303.323c-0.02-0.248-0.09-0.418-0.21-0.51s-0.288-0.139-0.504-0.139
		c-0.096,0-0.186,0.008-0.27,0.023s-0.159,0.045-0.226,0.084c-0.065,0.041-0.119,0.094-0.161,0.162s-0.069,0.152-0.081,0.252h-0.385
		c0.024-0.156,0.069-0.287,0.136-0.396c0.065-0.107,0.147-0.195,0.245-0.264c0.099-0.066,0.211-0.117,0.34-0.146
		c0.128-0.029,0.264-0.045,0.407-0.045c0.332,0,0.595,0.08,0.786,0.24c0.192,0.16,0.286,0.412,0.282,0.756v1.428
		c-0.004,0.117-0.002,0.232,0.006,0.348c0.008,0.117,0.017,0.227,0.024,0.33H536.4l-0.012-0.443h-0.013l-0.018,0.041
		c-0.032,0.064-0.08,0.125-0.145,0.184c-0.063,0.059-0.138,0.109-0.222,0.156s-0.176,0.082-0.276,0.111
		c-0.1,0.027-0.199,0.041-0.3,0.041c-0.14,0-0.271-0.02-0.393-0.062c-0.122-0.041-0.229-0.104-0.318-0.184s-0.161-0.176-0.213-0.291
		c-0.052-0.113-0.078-0.244-0.078-0.393c0-0.203,0.056-0.381,0.168-0.531s0.258-0.262,0.438-0.338c0.1-0.045,0.207-0.076,0.32-0.094
		c0.114-0.018,0.23-0.029,0.349-0.033s0.235-0.004,0.354-0.002s0.231-0.002,0.339-0.01V303.323z M534.804,304.607
		c0,0.205,0.066,0.355,0.2,0.453c0.135,0.098,0.293,0.146,0.478,0.146c0.195,0,0.354-0.037,0.477-0.109
		c0.122-0.074,0.216-0.172,0.282-0.291c0.066-0.121,0.108-0.258,0.126-0.412s0.023-0.309,0.015-0.465
		c-0.128,0.004-0.281,0.006-0.462,0.006c-0.18,0-0.353,0.018-0.519,0.055c-0.166,0.035-0.308,0.1-0.423,0.195
		C534.862,304.279,534.804,304.419,534.804,304.607z"/>
	<path fill="#FFFFFF" d="M538.037,305.447h-0.359v-2.334c0.004-0.115,0.002-0.232-0.007-0.348c-0.008-0.115-0.016-0.227-0.023-0.33
		h0.372l0.018,0.443h0.012c0.057-0.15,0.146-0.275,0.268-0.375c0.122-0.098,0.259-0.15,0.411-0.158
		c0.06-0.004,0.12-0.006,0.18-0.004c0.06,0.004,0.12,0.006,0.18,0.01v0.348c-0.036-0.004-0.072-0.008-0.11-0.014
		s-0.075-0.01-0.111-0.01c-0.268,0-0.471,0.088-0.609,0.264c-0.138,0.176-0.211,0.408-0.219,0.697V305.447z"/>
	<path fill="#FFFFFF" d="M541.776,302.435h0.372c-0.009,0.104-0.016,0.215-0.021,0.33s-0.009,0.232-0.009,0.348v1.807
		c0,0.152-0.002,0.303-0.006,0.453s-0.025,0.291-0.063,0.426s-0.1,0.26-0.186,0.375s-0.213,0.211-0.381,0.287
		c-0.12,0.057-0.229,0.094-0.327,0.111c-0.099,0.018-0.217,0.027-0.357,0.027c-0.136,0-0.274-0.014-0.417-0.039
		c-0.142-0.025-0.27-0.07-0.384-0.131c-0.114-0.062-0.208-0.146-0.282-0.25s-0.11-0.234-0.11-0.391h0.39
		c0.012,0.092,0.045,0.168,0.099,0.229c0.055,0.061,0.121,0.109,0.201,0.146c0.08,0.039,0.168,0.066,0.265,0.082
		c0.096,0.016,0.191,0.023,0.287,0.023c0.116,0,0.229-0.02,0.337-0.061c0.107-0.039,0.203-0.096,0.287-0.168
		c0.084-0.07,0.152-0.158,0.204-0.26c0.053-0.102,0.08-0.217,0.084-0.346v-0.564h-0.012c-0.088,0.18-0.224,0.32-0.408,0.418
		c-0.184,0.098-0.374,0.146-0.569,0.146c-0.229,0-0.424-0.039-0.585-0.119c-0.162-0.08-0.297-0.189-0.402-0.328
		c-0.106-0.137-0.185-0.299-0.234-0.482s-0.075-0.381-0.075-0.588c0-0.205,0.024-0.4,0.072-0.592c0.048-0.189,0.123-0.355,0.226-0.5
		c0.102-0.145,0.234-0.26,0.398-0.348s0.36-0.133,0.588-0.133c0.221,0,0.41,0.049,0.57,0.146s0.3,0.236,0.42,0.412l0.012-0.025
		L541.776,302.435z M541.757,303.874c0-0.143-0.02-0.287-0.06-0.428c-0.04-0.143-0.101-0.271-0.18-0.385
		c-0.08-0.113-0.182-0.207-0.304-0.279s-0.263-0.107-0.423-0.107c-0.164,0-0.305,0.037-0.423,0.111s-0.214,0.17-0.288,0.287
		c-0.074,0.119-0.129,0.25-0.165,0.393c-0.036,0.145-0.054,0.285-0.054,0.422c0,0.139,0.018,0.281,0.054,0.426
		c0.036,0.143,0.092,0.273,0.168,0.389c0.076,0.117,0.174,0.213,0.294,0.289s0.262,0.113,0.426,0.113
		c0.173,0,0.319-0.035,0.441-0.107s0.221-0.168,0.297-0.285s0.131-0.25,0.165-0.396S541.757,304.023,541.757,303.874z"/>
	<path fill="#FFFFFF" d="M543.228,304.025c0.004,0.16,0.025,0.312,0.065,0.457c0.04,0.143,0.103,0.27,0.187,0.377
		s0.19,0.193,0.32,0.256s0.287,0.092,0.472,0.092c0.107,0,0.209-0.018,0.303-0.053c0.094-0.037,0.18-0.086,0.258-0.15
		s0.143-0.141,0.195-0.229c0.052-0.088,0.09-0.184,0.113-0.287h0.379c-0.093,0.363-0.252,0.629-0.478,0.797
		s-0.521,0.252-0.885,0.252c-0.225,0-0.419-0.045-0.585-0.135s-0.303-0.209-0.411-0.357c-0.108-0.146-0.189-0.316-0.243-0.51
		c-0.054-0.191-0.081-0.389-0.081-0.594c0-0.203,0.028-0.402,0.084-0.594c0.057-0.191,0.141-0.361,0.252-0.51
		c0.112-0.148,0.252-0.268,0.42-0.357s0.364-0.135,0.588-0.135c0.253,0,0.466,0.043,0.64,0.129s0.315,0.205,0.426,0.357
		s0.189,0.33,0.237,0.533c0.048,0.205,0.071,0.424,0.071,0.66H543.228z M545.165,303.695c-0.012-0.145-0.04-0.279-0.084-0.404
		c-0.044-0.127-0.106-0.234-0.186-0.324c-0.08-0.09-0.18-0.16-0.298-0.213c-0.117-0.053-0.255-0.078-0.41-0.078
		c-0.148,0-0.278,0.027-0.391,0.084c-0.111,0.057-0.207,0.133-0.285,0.229c-0.077,0.096-0.14,0.205-0.186,0.326
		c-0.046,0.123-0.075,0.25-0.087,0.381H545.165z"/>
</g>
<rect x="547.805" y="329.084" fill="#00B050" width="41.706" height="7.584"/>
<g>
	<path fill="#FFFFFF" d="M552.009,332.833c-0.016-0.232-0.094-0.404-0.233-0.516c-0.141-0.113-0.337-0.17-0.589-0.17
		c-0.14,0-0.265,0.035-0.375,0.104c-0.109,0.068-0.202,0.158-0.278,0.271c-0.076,0.115-0.135,0.248-0.178,0.4
		c-0.042,0.152-0.062,0.314-0.062,0.486s0.021,0.334,0.062,0.488c0.043,0.154,0.102,0.289,0.178,0.404
		c0.076,0.117,0.169,0.209,0.278,0.277c0.11,0.066,0.235,0.102,0.375,0.102c0.236,0,0.429-0.064,0.576-0.195
		c0.148-0.129,0.23-0.299,0.246-0.508h0.391c-0.097,0.689-0.488,1.033-1.177,1.033c-0.224,0-0.419-0.045-0.585-0.135
		s-0.303-0.209-0.411-0.357c-0.107-0.148-0.188-0.318-0.242-0.51c-0.055-0.191-0.081-0.391-0.081-0.594
		c0-0.205,0.027-0.402,0.084-0.594c0.056-0.193,0.14-0.363,0.252-0.512c0.111-0.146,0.252-0.266,0.42-0.355s0.363-0.135,0.588-0.135
		c0.156,0,0.302,0.021,0.438,0.068c0.137,0.045,0.256,0.111,0.36,0.197c0.104,0.086,0.187,0.193,0.249,0.318
		c0.062,0.127,0.097,0.27,0.105,0.43H552.009z"/>
	<path fill="#FFFFFF" d="M554.295,331.82c0.24,0,0.448,0.045,0.624,0.137s0.322,0.213,0.438,0.363
		c0.115,0.15,0.201,0.32,0.258,0.514c0.056,0.191,0.084,0.385,0.084,0.582c0,0.199-0.028,0.395-0.084,0.584
		c-0.057,0.189-0.143,0.361-0.258,0.51c-0.116,0.15-0.263,0.271-0.438,0.363s-0.384,0.139-0.624,0.139s-0.448-0.047-0.624-0.139
		s-0.322-0.213-0.438-0.363c-0.116-0.148-0.202-0.32-0.259-0.51c-0.056-0.189-0.084-0.385-0.084-0.584
		c0-0.197,0.028-0.391,0.084-0.582c0.057-0.193,0.143-0.363,0.259-0.514c0.115-0.15,0.262-0.271,0.438-0.363
		S554.055,331.82,554.295,331.82z M555.309,333.415c0-0.141-0.019-0.285-0.057-0.436s-0.097-0.285-0.177-0.408
		c-0.08-0.121-0.186-0.223-0.315-0.303s-0.285-0.121-0.465-0.121s-0.335,0.041-0.465,0.121s-0.235,0.182-0.315,0.303
		c-0.08,0.123-0.139,0.258-0.177,0.408s-0.057,0.295-0.057,0.436c0,0.139,0.019,0.285,0.057,0.434
		c0.038,0.15,0.097,0.287,0.177,0.408c0.08,0.123,0.186,0.223,0.315,0.303s0.285,0.121,0.465,0.121s0.335-0.041,0.465-0.121
		s0.235-0.18,0.315-0.303c0.08-0.121,0.139-0.258,0.177-0.408C555.29,333.7,555.309,333.554,555.309,333.415z"/>
	<path fill="#FFFFFF" d="M556.803,334.921h-0.359v-2.334c0-0.117-0.004-0.232-0.01-0.348c-0.006-0.117-0.013-0.227-0.021-0.33h0.372
		l0.018,0.443l0.012,0.012c0.104-0.188,0.238-0.326,0.402-0.414s0.344-0.131,0.54-0.131c0.164,0,0.304,0.021,0.42,0.064
		c0.116,0.045,0.213,0.102,0.291,0.172s0.142,0.15,0.189,0.24s0.084,0.18,0.107,0.27c0.024,0.09,0.039,0.178,0.045,0.262
		s0.01,0.152,0.01,0.209v1.885h-0.36v-1.945c0-0.264-0.07-0.467-0.21-0.611c-0.141-0.145-0.334-0.217-0.582-0.217
		c-0.148,0-0.276,0.029-0.384,0.088c-0.108,0.059-0.198,0.135-0.271,0.23s-0.125,0.207-0.159,0.33
		c-0.033,0.125-0.051,0.254-0.051,0.391V334.921z"/>
	<path fill="#FFFFFF" d="M559.677,332.659c0-0.156,0.033-0.287,0.099-0.395c0.066-0.105,0.151-0.191,0.256-0.258
		c0.104-0.064,0.222-0.113,0.354-0.143c0.132-0.031,0.264-0.045,0.396-0.045c0.144,0,0.278,0.014,0.404,0.041
		s0.239,0.074,0.339,0.139c0.101,0.062,0.182,0.148,0.243,0.254c0.062,0.107,0.1,0.24,0.111,0.4h-0.39
		c-0.009-0.098-0.034-0.178-0.078-0.24c-0.044-0.064-0.101-0.115-0.168-0.154c-0.068-0.037-0.146-0.064-0.231-0.084
		c-0.086-0.018-0.175-0.027-0.267-0.027c-0.084,0-0.167,0.01-0.249,0.027c-0.082,0.02-0.154,0.047-0.216,0.084
		c-0.062,0.039-0.113,0.088-0.153,0.15s-0.061,0.137-0.061,0.225c0,0.113,0.035,0.197,0.105,0.256s0.166,0.107,0.288,0.146
		c0.122,0.041,0.269,0.08,0.44,0.121c0.173,0.039,0.36,0.096,0.564,0.168c0.156,0.055,0.28,0.145,0.372,0.27
		c0.092,0.123,0.138,0.268,0.138,0.432c0,0.168-0.036,0.314-0.107,0.438c-0.072,0.125-0.167,0.229-0.285,0.309
		c-0.118,0.082-0.253,0.143-0.405,0.182c-0.152,0.037-0.308,0.057-0.468,0.057c-0.132,0-0.264-0.016-0.396-0.049
		c-0.132-0.031-0.252-0.084-0.359-0.156c-0.108-0.07-0.197-0.166-0.268-0.281c-0.069-0.115-0.106-0.258-0.11-0.426h0.39
		c0.008,0.111,0.037,0.205,0.087,0.279s0.113,0.133,0.189,0.18c0.075,0.045,0.161,0.078,0.258,0.096
		c0.096,0.018,0.195,0.027,0.3,0.027c0.096,0,0.191-0.012,0.285-0.037c0.094-0.023,0.178-0.059,0.252-0.107
		c0.074-0.047,0.134-0.109,0.18-0.186s0.069-0.166,0.069-0.27c0-0.109-0.027-0.197-0.081-0.264
		c-0.054-0.068-0.126-0.123-0.216-0.166c-0.09-0.041-0.192-0.076-0.307-0.102c-0.113-0.025-0.23-0.053-0.351-0.082
		c-0.12-0.027-0.237-0.059-0.351-0.096c-0.114-0.035-0.217-0.084-0.307-0.145c-0.09-0.059-0.162-0.135-0.216-0.225
		S559.677,332.798,559.677,332.659z"/>
	<path fill="#FFFFFF" d="M563.037,332.24h-0.601v-0.33h0.601v-0.643l0.359-0.156v0.799h0.685v0.33h-0.685v2.016
		c-0.008,0.283,0.13,0.426,0.414,0.426c0.057,0,0.11-0.002,0.162-0.006s0.103-0.014,0.15-0.031v0.312
		c-0.057,0.016-0.116,0.029-0.181,0.039c-0.063,0.01-0.126,0.016-0.186,0.016c-0.192,0-0.337-0.027-0.435-0.082
		c-0.099-0.053-0.168-0.125-0.21-0.213s-0.065-0.184-0.069-0.287s-0.006-0.209-0.006-0.312V332.24z"/>
	<path fill="#FFFFFF" d="M566.607,332.796c-0.02-0.248-0.09-0.418-0.21-0.51s-0.288-0.139-0.504-0.139
		c-0.096,0-0.186,0.01-0.27,0.025s-0.159,0.043-0.226,0.084c-0.065,0.039-0.119,0.094-0.161,0.162s-0.069,0.152-0.081,0.252h-0.385
		c0.024-0.156,0.069-0.289,0.136-0.396c0.065-0.107,0.147-0.195,0.245-0.264c0.099-0.068,0.211-0.117,0.34-0.146
		c0.128-0.031,0.264-0.045,0.407-0.045c0.332,0,0.595,0.08,0.786,0.238c0.192,0.16,0.286,0.412,0.282,0.756v1.43
		c-0.004,0.115-0.002,0.23,0.006,0.348c0.008,0.115,0.017,0.227,0.024,0.33h-0.372l-0.012-0.445h-0.013l-0.018,0.043
		c-0.032,0.064-0.08,0.125-0.145,0.184c-0.063,0.057-0.138,0.109-0.222,0.154c-0.084,0.047-0.176,0.084-0.276,0.111
		c-0.1,0.029-0.199,0.043-0.3,0.043c-0.14,0-0.271-0.021-0.393-0.062c-0.122-0.043-0.229-0.104-0.318-0.184
		s-0.161-0.178-0.213-0.291s-0.078-0.246-0.078-0.393c0-0.205,0.056-0.381,0.168-0.531s0.258-0.264,0.438-0.34
		c0.1-0.043,0.207-0.074,0.32-0.092c0.114-0.02,0.23-0.029,0.349-0.033s0.235-0.006,0.354-0.004s0.231,0,0.339-0.008V332.796z
		 M565.03,334.081c0,0.203,0.066,0.354,0.2,0.453c0.135,0.098,0.293,0.146,0.478,0.146c0.195,0,0.354-0.037,0.477-0.111
		s0.216-0.172,0.282-0.291s0.108-0.258,0.126-0.41c0.018-0.154,0.023-0.311,0.015-0.465c-0.128,0.004-0.281,0.006-0.462,0.006
		c-0.18,0-0.353,0.018-0.519,0.053c-0.166,0.037-0.308,0.102-0.423,0.195C565.087,333.751,565.03,333.892,565.03,334.081z"/>
	<path fill="#FFFFFF" d="M568.263,334.921h-0.359v-2.334c0-0.117-0.004-0.232-0.01-0.348c-0.006-0.117-0.013-0.227-0.021-0.33h0.372
		l0.018,0.443l0.012,0.012c0.104-0.188,0.238-0.326,0.402-0.414s0.344-0.131,0.54-0.131c0.164,0,0.304,0.021,0.42,0.064
		c0.116,0.045,0.213,0.102,0.291,0.172s0.142,0.15,0.189,0.24s0.084,0.18,0.107,0.27c0.024,0.09,0.039,0.178,0.045,0.262
		s0.01,0.152,0.01,0.209v1.885h-0.36v-1.945c0-0.264-0.07-0.467-0.21-0.611c-0.141-0.145-0.334-0.217-0.582-0.217
		c-0.148,0-0.276,0.029-0.384,0.088c-0.108,0.059-0.198,0.135-0.271,0.23s-0.125,0.207-0.159,0.33
		c-0.033,0.125-0.051,0.254-0.051,0.391V334.921z"/>
	<path fill="#FFFFFF" d="M571.497,332.24h-0.601v-0.33h0.601v-0.643l0.359-0.156v0.799h0.685v0.33h-0.685v2.016
		c-0.008,0.283,0.13,0.426,0.414,0.426c0.057,0,0.11-0.002,0.162-0.006s0.103-0.014,0.15-0.031v0.312
		c-0.057,0.016-0.116,0.029-0.181,0.039c-0.063,0.01-0.126,0.016-0.186,0.016c-0.192,0-0.337-0.027-0.435-0.082
		c-0.099-0.053-0.168-0.125-0.21-0.213s-0.065-0.184-0.069-0.287s-0.006-0.209-0.006-0.312V332.24z"/>
	<path fill="#FFFFFF" d="M575.271,332.365h0.012c0.104-0.188,0.238-0.326,0.402-0.414s0.344-0.131,0.54-0.131
		c0.164,0,0.304,0.021,0.42,0.064c0.116,0.045,0.213,0.102,0.291,0.172s0.142,0.15,0.189,0.24s0.084,0.18,0.107,0.27
		c0.024,0.09,0.039,0.178,0.045,0.262s0.01,0.152,0.01,0.209v1.885h-0.36v-1.945c0-0.264-0.07-0.467-0.21-0.611
		c-0.141-0.145-0.334-0.217-0.582-0.217c-0.148,0-0.276,0.029-0.384,0.088c-0.108,0.059-0.198,0.135-0.271,0.23
		s-0.125,0.207-0.159,0.33c-0.033,0.125-0.051,0.254-0.051,0.391v1.734h-0.359v-4.332h0.359V332.365z"/>
	<path fill="#FFFFFF" d="M578.457,333.499c0.004,0.16,0.025,0.311,0.065,0.455s0.103,0.27,0.187,0.379
		c0.084,0.107,0.19,0.193,0.32,0.254c0.13,0.062,0.287,0.094,0.472,0.094c0.107,0,0.209-0.018,0.303-0.055
		c0.094-0.035,0.18-0.086,0.258-0.15c0.078-0.062,0.143-0.139,0.195-0.227c0.052-0.088,0.09-0.184,0.113-0.289h0.379
		c-0.093,0.365-0.252,0.631-0.478,0.799s-0.521,0.252-0.885,0.252c-0.225,0-0.419-0.045-0.585-0.135s-0.303-0.209-0.411-0.357
		s-0.189-0.318-0.243-0.51s-0.081-0.391-0.081-0.594c0-0.205,0.028-0.402,0.084-0.594c0.057-0.193,0.141-0.363,0.252-0.512
		c0.112-0.146,0.252-0.266,0.42-0.355s0.364-0.135,0.588-0.135c0.253,0,0.466,0.043,0.64,0.129s0.315,0.205,0.426,0.355
		c0.11,0.152,0.189,0.33,0.237,0.535c0.048,0.203,0.071,0.424,0.071,0.66H578.457z M580.395,333.169
		c-0.012-0.145-0.04-0.279-0.084-0.406c-0.044-0.125-0.106-0.232-0.186-0.324c-0.08-0.09-0.18-0.16-0.298-0.213
		c-0.117-0.051-0.255-0.078-0.41-0.078c-0.148,0-0.278,0.029-0.391,0.084c-0.111,0.057-0.207,0.133-0.285,0.229
		c-0.077,0.096-0.14,0.205-0.186,0.328c-0.046,0.121-0.075,0.248-0.087,0.381H580.395z"/>
	<path fill="#FFFFFF" d="M583.286,332.796c-0.02-0.248-0.09-0.418-0.21-0.51s-0.288-0.139-0.504-0.139
		c-0.096,0-0.186,0.01-0.27,0.025s-0.159,0.043-0.226,0.084c-0.065,0.039-0.119,0.094-0.161,0.162s-0.069,0.152-0.081,0.252h-0.385
		c0.024-0.156,0.069-0.289,0.136-0.396c0.065-0.107,0.147-0.195,0.245-0.264c0.099-0.068,0.211-0.117,0.34-0.146
		c0.128-0.031,0.264-0.045,0.407-0.045c0.332,0,0.595,0.08,0.786,0.238c0.192,0.16,0.286,0.412,0.282,0.756v1.43
		c-0.004,0.115-0.002,0.23,0.006,0.348c0.008,0.115,0.017,0.227,0.024,0.33h-0.372l-0.012-0.445h-0.013l-0.018,0.043
		c-0.032,0.064-0.08,0.125-0.145,0.184c-0.063,0.057-0.138,0.109-0.222,0.154c-0.084,0.047-0.176,0.084-0.276,0.111
		c-0.1,0.029-0.199,0.043-0.3,0.043c-0.14,0-0.271-0.021-0.393-0.062c-0.122-0.043-0.229-0.104-0.318-0.184
		s-0.161-0.178-0.213-0.291s-0.078-0.246-0.078-0.393c0-0.205,0.056-0.381,0.168-0.531s0.258-0.264,0.438-0.34
		c0.1-0.043,0.207-0.074,0.32-0.092c0.114-0.02,0.23-0.029,0.349-0.033s0.235-0.006,0.354-0.004s0.231,0,0.339-0.008V332.796z
		 M581.709,334.081c0,0.203,0.066,0.354,0.2,0.453c0.135,0.098,0.293,0.146,0.478,0.146c0.195,0,0.354-0.037,0.477-0.111
		s0.216-0.172,0.282-0.291s0.108-0.258,0.126-0.41c0.018-0.154,0.023-0.311,0.015-0.465c-0.128,0.004-0.281,0.006-0.462,0.006
		c-0.18,0-0.353,0.018-0.519,0.053c-0.166,0.037-0.308,0.102-0.423,0.195C581.767,333.751,581.709,333.892,581.709,334.081z"/>
	<path fill="#FFFFFF" d="M586.658,334.476l-0.012-0.023c-0.124,0.18-0.274,0.318-0.45,0.414s-0.37,0.145-0.582,0.145
		c-0.224,0-0.414-0.049-0.569-0.145c-0.156-0.096-0.284-0.221-0.385-0.375c-0.1-0.154-0.172-0.326-0.216-0.52
		c-0.044-0.191-0.065-0.381-0.065-0.568c0-0.197,0.021-0.389,0.065-0.576c0.044-0.189,0.116-0.357,0.216-0.508
		c0.101-0.15,0.229-0.271,0.385-0.363c0.155-0.092,0.346-0.137,0.569-0.137c0.2,0,0.396,0.047,0.588,0.141
		c0.192,0.094,0.34,0.229,0.444,0.404l0.012-0.012v-1.764h0.36v3.654c0,0.115,0.003,0.23,0.009,0.348
		c0.006,0.115,0.013,0.227,0.021,0.33h-0.372L586.658,334.476z M586.647,333.343c0-0.152-0.018-0.301-0.054-0.445
		c-0.036-0.143-0.093-0.27-0.171-0.381c-0.078-0.109-0.179-0.197-0.301-0.266s-0.271-0.104-0.446-0.104
		c-0.172,0-0.316,0.037-0.433,0.109c-0.115,0.072-0.209,0.166-0.278,0.281c-0.07,0.117-0.12,0.246-0.15,0.391
		s-0.045,0.287-0.045,0.432c0,0.141,0.012,0.287,0.036,0.441c0.023,0.154,0.067,0.295,0.132,0.426
		c0.063,0.131,0.151,0.238,0.261,0.324c0.11,0.086,0.251,0.129,0.423,0.129c0.196,0,0.36-0.039,0.492-0.113
		c0.132-0.076,0.237-0.178,0.315-0.301c0.078-0.125,0.134-0.266,0.168-0.426S586.647,333.515,586.647,333.343z"/>
</g>
</svg>
