<?xml version="1.0" encoding="utf-8"?>
<!-- Generator: Adobe Illustrator 16.0.4, SVG Export Plug-In . SVG Version: 6.00 Build 0)  -->
<!DOCTYPE svg PUBLIC "-//W3C//DTD SVG 1.1//EN" "http://www.w3.org/Graphics/SVG/1.1/DTD/svg11.dtd">
<svg version="1.1" id="Layer_1" xmlns="http://www.w3.org/2000/svg" xmlns:xlink="http://www.w3.org/1999/xlink" x="0px" y="0px"
	 width="589.61px" height="357.87px" viewBox="0 0 589.61 357.87" enable-background="new 0 0 589.61 357.87" xml:space="preserve">
<g>
	<line fill="none" stroke="#000000" stroke-width="3" stroke-miterlimit="8" x1="3.784" y1="354.551" x2="586.895" y2="354.551"/>
	<line fill="none" stroke="#000000" stroke-miterlimit="8" x1="3.09" y1="98.176" x2="3.09" y2="354.551"/>
	<path fill="none" stroke="#1DA4C9" stroke-width="3" stroke-miterlimit="8" d="M3.536,163.126
		c234.2,5.132,416.198,50.929,425.479,107.066"/>
	
		<line fill="none" stroke="#000000" stroke-width="3" stroke-miterlimit="8" stroke-dasharray="9,3" x1="454.465" y1="355.55" x2="454.465" y2="123.342"/>
	
		<line fill="none" stroke="#000000" stroke-width="3" stroke-miterlimit="8" stroke-dasharray="9,3" x1="429.422" y1="355.55" x2="429.422" y2="123.342"/>
	<line fill="none" stroke="#000000" stroke-width="2.25" stroke-miterlimit="8" x1="430.121" y1="98.176" x2="3.784" y2="98.177"/>
	<line fill="none" stroke="#000000" stroke-width="3" stroke-miterlimit="8" x1="454.465" y1="123.342" x2="454.465" y2="81.956"/>
	<line fill="none" stroke="#000000" stroke-width="3" stroke-miterlimit="8" x1="429.422" y1="123.342" x2="429.422" y2="81.956"/>
	<path fill="none" stroke="#1DA4C9" stroke-width="3" stroke-linecap="round" stroke-miterlimit="8" d="M586.895,206.837
		c-73.229,0-132.594,27.539-132.594,61.531"/>
	
		<line fill="none" stroke="#000000" stroke-width="2.25" stroke-miterlimit="8" x1="586.895" y1="98.176" x2="454.301" y2="98.177"/>
	<line fill="none" stroke="#000000" stroke-miterlimit="8" x1="586.895" y1="98.176" x2="586.895" y2="354.551"/>
	<rect x="148.398" y="2.627" fill="#6F3091" width="438.497" height="58.245"/>
	<g>
		<path fill="#FFFFFF" d="M172.515,31.551c-0.111-1.616-0.655-2.814-1.63-3.595c-0.976-0.78-2.341-1.17-4.096-1.17
			c-0.976,0-1.847,0.237-2.612,0.71c-0.767,0.474-1.415,1.107-1.944,1.902c-0.53,0.794-0.94,1.721-1.233,2.779
			c-0.293,1.06-0.439,2.188-0.439,3.386c0,1.199,0.146,2.334,0.439,3.407c0.292,1.073,0.703,2.013,1.233,2.821
			c0.529,0.809,1.177,1.449,1.944,1.923c0.766,0.474,1.636,0.71,2.612,0.71c1.644,0,2.981-0.453,4.013-1.358
			c1.03-0.905,1.602-2.083,1.713-3.532h2.717c-0.668,4.793-3.4,7.189-8.192,7.189c-1.561,0-2.919-0.313-4.075-0.94
			c-1.157-0.627-2.111-1.456-2.863-2.487c-0.752-1.031-1.316-2.215-1.693-3.553c-0.376-1.337-0.564-2.717-0.564-4.138
			c0-1.421,0.194-2.801,0.585-4.138c0.39-1.337,0.975-2.521,1.755-3.553c0.78-1.031,1.756-1.86,2.926-2.487
			c1.17-0.627,2.535-0.941,4.096-0.941c1.086,0,2.104,0.161,3.051,0.481c0.947,0.321,1.783,0.78,2.508,1.379
			c0.724,0.6,1.302,1.337,1.734,2.215c0.432,0.877,0.675,1.874,0.731,2.988H172.515z"/>
		<path fill="#FFFFFF" d="M188.44,24.487c1.672,0,3.12,0.321,4.347,0.961c1.226,0.642,2.243,1.484,3.051,2.529
			c0.808,1.045,1.407,2.236,1.797,3.574c0.39,1.338,0.585,2.689,0.585,4.055c0,1.394-0.195,2.752-0.585,4.075
			c-0.391,1.324-0.989,2.508-1.797,3.553c-0.809,1.045-1.825,1.888-3.051,2.529c-1.227,0.641-2.675,0.961-4.347,0.961
			c-1.672,0-3.122-0.321-4.347-0.961c-1.227-0.641-2.244-1.484-3.051-2.529c-0.809-1.045-1.408-2.229-1.797-3.553
			c-0.391-1.323-0.585-2.682-0.585-4.075c0-1.365,0.194-2.717,0.585-4.055c0.39-1.337,0.989-2.529,1.797-3.574
			c0.808-1.045,1.825-1.887,3.051-2.529C185.319,24.808,186.768,24.487,188.44,24.487z M195.504,35.606
			c0-0.975-0.132-1.985-0.397-3.03c-0.265-1.045-0.676-1.992-1.233-2.842c-0.558-0.85-1.289-1.553-2.194-2.111
			c-0.906-0.557-1.985-0.836-3.239-0.836c-1.254,0-2.334,0.279-3.24,0.836c-0.906,0.558-1.637,1.261-2.194,2.111
			c-0.558,0.85-0.968,1.797-1.233,2.842c-0.265,1.045-0.397,2.055-0.397,3.03c0,0.976,0.132,1.985,0.397,3.03
			c0.265,1.045,0.675,1.993,1.233,2.842c0.557,0.85,1.289,1.554,2.194,2.111c0.905,0.558,1.985,0.836,3.24,0.836
			c1.254,0,2.333-0.278,3.239-0.836c0.905-0.557,1.637-1.261,2.194-2.111c0.557-0.85,0.968-1.797,1.233-2.842
			C195.372,37.591,195.504,36.582,195.504,35.606z"/>
		<path fill="#FFFFFF" d="M205.912,46.097h-2.508V29.838c0-0.808-0.021-1.616-0.062-2.424c-0.042-0.808-0.091-1.574-0.146-2.299
			h2.592l0.125,3.093l0.084,0.083c0.724-1.309,1.657-2.271,2.8-2.884c1.142-0.613,2.396-0.92,3.762-0.92
			c1.143,0,2.117,0.154,2.926,0.46c0.808,0.307,1.484,0.704,2.027,1.191c0.543,0.488,0.982,1.045,1.317,1.672
			c0.334,0.627,0.585,1.254,0.752,1.881c0.167,0.627,0.272,1.233,0.313,1.818c0.042,0.585,0.063,1.073,0.063,1.463v13.125h-2.508
			V32.555c0-1.839-0.488-3.26-1.463-4.264c-0.976-1.003-2.327-1.504-4.055-1.504c-1.031,0-1.923,0.202-2.675,0.606
			c-0.752,0.404-1.379,0.94-1.881,1.609c-0.501,0.668-0.871,1.435-1.107,2.299c-0.237,0.864-0.355,1.77-0.355,2.717V46.097z"/>
		<path fill="#FFFFFF" d="M225.933,30.339c0-1.087,0.23-1.999,0.689-2.738c0.46-0.738,1.052-1.337,1.777-1.797
			c0.724-0.46,1.546-0.794,2.466-1.003s1.839-0.313,2.759-0.313c1.003,0,1.943,0.098,2.821,0.293
			c0.878,0.195,1.665,0.516,2.362,0.961c0.696,0.446,1.26,1.038,1.692,1.776s0.69,1.665,0.773,2.779h-2.717
			c-0.056-0.668-0.237-1.226-0.543-1.672c-0.307-0.445-0.697-0.801-1.17-1.066c-0.474-0.264-1.01-0.459-1.609-0.585
			c-0.6-0.125-1.22-0.188-1.86-0.188c-0.585,0-1.164,0.062-1.734,0.188c-0.572,0.125-1.073,0.321-1.505,0.585
			c-0.432,0.265-0.788,0.613-1.066,1.045c-0.279,0.433-0.418,0.955-0.418,1.567c0,0.781,0.244,1.373,0.731,1.777
			c0.487,0.404,1.156,0.746,2.006,1.024c0.85,0.279,1.874,0.558,3.072,0.836c1.198,0.279,2.508,0.668,3.929,1.17
			c1.086,0.391,1.95,1.018,2.591,1.881c0.641,0.864,0.961,1.867,0.961,3.009c0,1.17-0.251,2.188-0.752,3.051
			c-0.501,0.864-1.164,1.582-1.985,2.153c-0.822,0.571-1.763,0.989-2.821,1.254c-1.06,0.265-2.146,0.397-3.26,0.397
			c-0.92,0-1.839-0.112-2.759-0.334c-0.919-0.223-1.755-0.585-2.508-1.086c-0.752-0.502-1.373-1.156-1.86-1.965
			c-0.488-0.808-0.746-1.797-0.773-2.968h2.717c0.056,0.781,0.257,1.429,0.606,1.944c0.348,0.516,0.787,0.934,1.317,1.254
			c0.529,0.321,1.128,0.543,1.797,0.669c0.668,0.125,1.365,0.188,2.09,0.188c0.668,0,1.33-0.083,1.985-0.251
			c0.654-0.167,1.239-0.418,1.755-0.752c0.515-0.334,0.933-0.766,1.254-1.295c0.32-0.529,0.481-1.156,0.481-1.881
			c0-0.752-0.188-1.365-0.564-1.839c-0.376-0.474-0.878-0.857-1.505-1.149s-1.337-0.529-2.131-0.71
			c-0.794-0.181-1.609-0.369-2.445-0.564c-0.836-0.194-1.651-0.418-2.445-0.668c-0.794-0.251-1.505-0.585-2.132-1.003
			s-1.128-0.94-1.504-1.567C226.121,32.116,225.933,31.315,225.933,30.339z"/>
		<path fill="#FFFFFF" d="M249.34,27.414h-4.18v-2.299h4.18v-4.472l2.508-1.087v5.559h4.765v2.299h-4.765v14.044
			c-0.056,1.979,0.905,2.968,2.884,2.968c0.39,0,0.766-0.014,1.128-0.042c0.362-0.027,0.71-0.097,1.045-0.209v2.174
			c-0.391,0.111-0.809,0.202-1.254,0.271c-0.446,0.069-0.878,0.104-1.296,0.104c-1.337,0-2.348-0.188-3.03-0.564
			c-0.683-0.376-1.17-0.871-1.463-1.483s-0.453-1.282-0.48-2.006c-0.028-0.725-0.042-1.449-0.042-2.174V27.414z"/>
		<path fill="#FFFFFF" d="M274.209,31.301c-0.139-1.728-0.627-2.912-1.463-3.553c-0.836-0.641-2.006-0.961-3.512-0.961
			c-0.668,0-1.295,0.056-1.881,0.167c-0.584,0.112-1.107,0.307-1.567,0.585c-0.459,0.279-0.836,0.655-1.128,1.129
			c-0.292,0.474-0.48,1.059-0.564,1.755h-2.675c0.167-1.087,0.48-2.006,0.94-2.759s1.031-1.365,1.714-1.839
			c0.682-0.474,1.469-0.815,2.361-1.024c0.892-0.209,1.839-0.313,2.843-0.313c2.312,0,4.137,0.558,5.475,1.672
			c1.338,1.115,1.992,2.87,1.965,5.266v9.948c-0.027,0.809-0.014,1.616,0.043,2.424c0.055,0.809,0.109,1.575,0.166,2.299h-2.592
			l-0.084-3.093h-0.082l-0.127,0.293c-0.223,0.446-0.557,0.871-1.002,1.275c-0.447,0.404-0.961,0.767-1.547,1.086
			c-0.586,0.321-1.227,0.578-1.922,0.773c-0.697,0.194-1.395,0.292-2.09,0.292c-0.977,0-1.889-0.146-2.739-0.439
			c-0.85-0.292-1.588-0.717-2.215-1.275c-0.627-0.557-1.122-1.233-1.483-2.027c-0.363-0.794-0.543-1.707-0.543-2.738
			c0-1.421,0.39-2.654,1.17-3.699c0.78-1.045,1.797-1.832,3.051-2.362c0.696-0.306,1.442-0.522,2.236-0.648
			c0.795-0.125,1.602-0.202,2.424-0.229s1.645-0.035,2.467-0.021c0.822,0.014,1.609-0.007,2.361-0.063V31.301z M263.217,40.246
			c0,1.421,0.466,2.473,1.4,3.156c0.933,0.683,2.041,1.024,3.323,1.024c1.365,0,2.473-0.257,3.322-0.773
			c0.85-0.515,1.506-1.191,1.965-2.027c0.461-0.836,0.752-1.791,0.879-2.863c0.125-1.073,0.16-2.153,0.104-3.239
			c-0.893,0.028-1.965,0.042-3.219,0.042s-2.459,0.125-3.615,0.376c-1.156,0.25-2.139,0.704-2.947,1.358
			C263.62,37.954,263.217,38.936,263.217,40.246z"/>
		<path fill="#FFFFFF" d="M285.746,46.097h-2.508V29.838c0-0.808-0.021-1.616-0.062-2.424c-0.042-0.808-0.091-1.574-0.146-2.299
			h2.592l0.125,3.093l0.084,0.083c0.724-1.309,1.657-2.271,2.8-2.884c1.143-0.613,2.396-0.92,3.763-0.92
			c1.142,0,2.117,0.154,2.926,0.46c0.807,0.307,1.483,0.704,2.028,1.191c0.543,0.488,0.98,1.045,1.316,1.672
			c0.334,0.627,0.584,1.254,0.752,1.881c0.166,0.627,0.271,1.233,0.312,1.818c0.043,0.585,0.062,1.073,0.062,1.463v13.125h-2.508
			V32.555c0-1.839-0.486-3.26-1.462-4.264c-0.976-1.003-2.327-1.504-4.054-1.504c-1.031,0-1.923,0.202-2.676,0.606
			c-0.752,0.404-1.379,0.94-1.881,1.609c-0.501,0.668-0.871,1.435-1.107,2.299c-0.237,0.864-0.355,1.77-0.355,2.717V46.097z"/>
		<path fill="#FFFFFF" d="M308.275,27.414h-4.18v-2.299h4.18v-4.472l2.508-1.087v5.559h4.766v2.299h-4.766v14.044
			c-0.057,1.979,0.906,2.968,2.885,2.968c0.389,0,0.766-0.014,1.129-0.042c0.361-0.027,0.709-0.097,1.045-0.209v2.174
			c-0.391,0.111-0.809,0.202-1.254,0.271c-0.447,0.069-0.879,0.104-1.297,0.104c-1.338,0-2.348-0.188-3.029-0.564
			c-0.684-0.376-1.172-0.871-1.463-1.483c-0.293-0.613-0.455-1.282-0.482-2.006s-0.041-1.449-0.041-2.174V27.414z"/>
		<path fill="#FFFFFF" d="M334.148,54.123h-2.508V29.838c0.027-0.808,0.014-1.616-0.043-2.424c-0.055-0.808-0.111-1.574-0.166-2.299
			h2.592l0.125,3.093l0.084,0.083c0.723-1.226,1.754-2.166,3.092-2.821c1.338-0.654,2.703-0.982,4.098-0.982
			c1.559,0,2.883,0.321,3.971,0.961c1.086,0.642,1.977,1.484,2.674,2.529s1.199,2.223,1.506,3.532
			c0.307,1.31,0.459,2.647,0.459,4.013c0,1.31-0.152,2.633-0.459,3.971s-0.803,2.543-1.484,3.615
			c-0.684,1.073-1.561,1.944-2.633,2.613c-1.074,0.668-2.377,1.003-3.908,1.003c-1.533,0-2.92-0.334-4.16-1.003
			c-1.24-0.669-2.291-1.63-3.154-2.884h-0.084V54.123z M334.148,35.104c0,1.198,0.117,2.355,0.355,3.469
			c0.236,1.115,0.627,2.104,1.17,2.967c0.543,0.864,1.275,1.561,2.193,2.09c0.92,0.53,2.062,0.794,3.428,0.794
			c1.199,0,2.188-0.299,2.969-0.899c0.779-0.599,1.393-1.351,1.838-2.257c0.445-0.905,0.76-1.895,0.941-2.968
			c0.182-1.072,0.271-2.096,0.271-3.072c0-1.003-0.111-2.006-0.334-3.009c-0.225-1.003-0.586-1.908-1.088-2.717
			c-0.5-0.808-1.156-1.463-1.963-1.965c-0.809-0.501-1.812-0.752-3.01-0.752c-1.227,0-2.266,0.237-3.115,0.71
			c-0.85,0.474-1.545,1.094-2.09,1.86c-0.543,0.767-0.939,1.651-1.191,2.654C334.273,33.014,334.148,34.045,334.148,35.104z"/>
		<path fill="#FFFFFF" d="M369.342,25.114h2.508v16.26c0,0.809,0.021,1.616,0.062,2.424c0.041,0.809,0.09,1.575,0.146,2.299h-2.592
			l-0.125-3.093l-0.084-0.083c-0.725,1.31-1.658,2.271-2.801,2.884c-1.143,0.612-2.396,0.919-3.762,0.919
			c-1.143,0-2.117-0.153-2.926-0.46c-0.809-0.306-1.484-0.703-2.027-1.191c-0.543-0.487-0.982-1.045-1.316-1.672
			s-0.584-1.254-0.752-1.881c-0.168-0.627-0.271-1.226-0.314-1.797c-0.041-0.571-0.062-1.066-0.062-1.484V25.114h2.508v13.543
			c0,1.839,0.488,3.26,1.463,4.263c0.977,1.003,2.326,1.505,4.055,1.505c1.031,0,1.924-0.202,2.676-0.606
			c0.752-0.404,1.379-0.94,1.881-1.609s0.871-1.435,1.107-2.299c0.236-0.863,0.355-1.77,0.355-2.717V25.114z"/>
		<path fill="#FFFFFF" d="M381.004,28.208l0.084,0.083c0.725-1.309,1.656-2.271,2.801-2.884c1.141-0.613,2.395-0.92,3.762-0.92
			c1.672,0,3.105,0.418,4.305,1.254c1.197,0.836,2.033,1.951,2.508,3.344c0.391-0.613,0.828-1.198,1.316-1.756
			c0.488-0.557,1.037-1.045,1.65-1.463s1.275-0.752,1.986-1.003c0.711-0.251,1.469-0.376,2.277-0.376
			c1.143,0,2.117,0.154,2.926,0.46c0.809,0.307,1.484,0.704,2.027,1.191c0.543,0.488,0.982,1.045,1.316,1.672
			c0.336,0.627,0.586,1.254,0.754,1.881c0.166,0.627,0.271,1.233,0.312,1.818c0.041,0.585,0.062,1.073,0.062,1.463v13.125h-2.508
			V32.555c0-1.839-0.488-3.26-1.463-4.264c-0.975-1.003-2.326-1.504-4.055-1.504c-1.031,0-1.922,0.202-2.674,0.606
			c-0.754,0.404-1.381,0.94-1.881,1.609c-0.502,0.668-0.871,1.435-1.109,2.299c-0.236,0.864-0.354,1.77-0.354,2.717v12.08h-2.508
			V32.555c0-1.839-0.488-3.26-1.465-4.264c-0.975-1.003-2.326-1.504-4.053-1.504c-1.031,0-1.924,0.202-2.676,0.606
			c-0.752,0.404-1.379,0.94-1.881,1.609c-0.502,0.668-0.871,1.435-1.107,2.299c-0.238,0.864-0.355,1.77-0.355,2.717v12.08h-2.508
			V29.838c0-0.808-0.021-1.616-0.062-2.424c-0.043-0.808-0.092-1.574-0.146-2.299h2.592L381.004,28.208z"/>
		<path fill="#FFFFFF" d="M417.744,54.123h-2.508V29.838c0.027-0.808,0.014-1.616-0.043-2.424c-0.055-0.808-0.111-1.574-0.166-2.299
			h2.592l0.125,3.093l0.084,0.083c0.723-1.226,1.754-2.166,3.092-2.821c1.338-0.654,2.703-0.982,4.098-0.982
			c1.559,0,2.883,0.321,3.971,0.961c1.086,0.642,1.977,1.484,2.674,2.529s1.199,2.223,1.506,3.532
			c0.307,1.31,0.459,2.647,0.459,4.013c0,1.31-0.152,2.633-0.459,3.971s-0.803,2.543-1.484,3.615
			c-0.684,1.073-1.561,1.944-2.633,2.613c-1.074,0.668-2.377,1.003-3.908,1.003c-1.533,0-2.92-0.334-4.16-1.003
			c-1.24-0.669-2.291-1.63-3.154-2.884h-0.084V54.123z M417.744,35.104c0,1.198,0.117,2.355,0.355,3.469
			c0.236,1.115,0.627,2.104,1.17,2.967c0.543,0.864,1.275,1.561,2.193,2.09c0.92,0.53,2.062,0.794,3.428,0.794
			c1.199,0,2.188-0.299,2.969-0.899c0.779-0.599,1.393-1.351,1.838-2.257c0.445-0.905,0.76-1.895,0.941-2.968
			c0.182-1.072,0.271-2.096,0.271-3.072c0-1.003-0.111-2.006-0.334-3.009c-0.225-1.003-0.586-1.908-1.088-2.717
			c-0.5-0.808-1.156-1.463-1.963-1.965c-0.809-0.501-1.812-0.752-3.01-0.752c-1.227,0-2.266,0.237-3.115,0.71
			c-0.85,0.474-1.545,1.094-2.09,1.86c-0.543,0.767-0.939,1.651-1.191,2.654C417.869,33.014,417.744,34.045,417.744,35.104z"/>
		<path fill="#FFFFFF" d="M441.652,19.054h-2.926v-3.135h2.926V19.054z M441.443,25.114v20.983h-2.508V25.114H441.443z"/>
		<path fill="#FFFFFF" d="M450.68,46.097h-2.508V29.838c0-0.808-0.02-1.616-0.062-2.424c-0.041-0.808-0.09-1.574-0.146-2.299h2.592
			l0.125,3.093l0.084,0.083c0.725-1.309,1.658-2.271,2.801-2.884c1.143-0.613,2.396-0.92,3.762-0.92c1.143,0,2.117,0.154,2.926,0.46
			c0.809,0.307,1.484,0.704,2.027,1.191c0.543,0.488,0.982,1.045,1.316,1.672s0.586,1.254,0.752,1.881
			c0.168,0.627,0.271,1.233,0.314,1.818c0.041,0.585,0.062,1.073,0.062,1.463v13.125h-2.508V32.555c0-1.839-0.488-3.26-1.463-4.264
			c-0.977-1.003-2.328-1.504-4.055-1.504c-1.031,0-1.922,0.202-2.676,0.606c-0.752,0.404-1.379,0.94-1.881,1.609
			c-0.5,0.668-0.871,1.435-1.107,2.299s-0.355,1.77-0.355,2.717V46.097z"/>
		<path fill="#FFFFFF" d="M486,25.114h2.59c-0.055,0.725-0.104,1.491-0.145,2.299c-0.043,0.809-0.064,1.616-0.064,2.424v12.581
			c0,1.059-0.014,2.111-0.041,3.156s-0.174,2.034-0.439,2.968c-0.264,0.933-0.695,1.804-1.295,2.612
			c-0.6,0.808-1.484,1.477-2.654,2.006c-0.836,0.39-1.596,0.648-2.277,0.773c-0.684,0.125-1.512,0.188-2.488,0.188
			c-0.947,0-1.916-0.091-2.904-0.272c-0.99-0.182-1.881-0.488-2.676-0.919c-0.793-0.432-1.449-1.01-1.963-1.734
			c-0.518-0.725-0.773-1.63-0.773-2.717h2.717c0.082,0.641,0.312,1.17,0.689,1.588c0.375,0.418,0.842,0.759,1.4,1.024
			c0.557,0.264,1.17,0.452,1.838,0.564c0.67,0.111,1.338,0.167,2.008,0.167c0.807,0,1.588-0.14,2.34-0.418
			c0.752-0.279,1.422-0.669,2.006-1.17c0.586-0.502,1.059-1.108,1.422-1.818c0.361-0.71,0.557-1.512,0.584-2.403v-3.929h-0.082
			c-0.613,1.254-1.562,2.223-2.844,2.905c-1.281,0.683-2.605,1.024-3.971,1.024c-1.588,0-2.945-0.278-4.074-0.836
			c-1.129-0.557-2.062-1.317-2.801-2.278c-0.738-0.961-1.281-2.083-1.631-3.365c-0.348-1.281-0.521-2.647-0.521-4.096
			c0-1.421,0.166-2.793,0.502-4.117c0.334-1.323,0.855-2.487,1.566-3.49c0.711-1.003,1.637-1.811,2.779-2.424
			c1.143-0.613,2.508-0.92,4.098-0.92c1.531,0,2.855,0.342,3.971,1.024c1.113,0.683,2.09,1.637,2.926,2.863l0.082-0.167L486,25.114z
			 M485.873,35.146c0-1.003-0.139-1.999-0.418-2.988c-0.277-0.989-0.695-1.881-1.254-2.675c-0.557-0.794-1.26-1.442-2.109-1.944
			c-0.852-0.501-1.834-0.752-2.947-0.752c-1.143,0-2.125,0.258-2.947,0.773c-0.822,0.516-1.49,1.185-2.006,2.006
			c-0.516,0.822-0.898,1.735-1.15,2.738c-0.25,1.003-0.375,1.979-0.375,2.926c0,0.976,0.125,1.965,0.375,2.968
			c0.252,1.003,0.641,1.909,1.172,2.717c0.527,0.809,1.211,1.478,2.047,2.006c0.836,0.53,1.826,0.794,2.969,0.794
			c1.197,0,2.221-0.251,3.072-0.752c0.85-0.501,1.539-1.163,2.068-1.985c0.529-0.822,0.912-1.741,1.15-2.759
			C485.756,37.201,485.873,36.177,485.873,35.146z"/>
		<path fill="#FFFFFF" d="M508.779,46.097h-2.508V29.838c0.027-0.808,0.014-1.616-0.041-2.424c-0.057-0.808-0.111-1.574-0.168-2.299
			h2.592l0.125,3.093h0.084c0.391-1.059,1.01-1.929,1.859-2.612c0.852-0.683,1.805-1.052,2.863-1.108
			c0.418-0.027,0.836-0.034,1.254-0.021c0.418,0.014,0.836,0.035,1.254,0.062v2.424c-0.25-0.027-0.508-0.062-0.771-0.104
			c-0.266-0.042-0.523-0.062-0.773-0.062c-1.867,0-3.281,0.613-4.244,1.839c-0.961,1.227-1.469,2.842-1.525,4.849V46.097z"/>
		<path fill="#FFFFFF" d="M532.104,31.301c-0.141-1.728-0.627-2.912-1.463-3.553c-0.836-0.641-2.008-0.961-3.512-0.961
			c-0.67,0-1.297,0.056-1.881,0.167c-0.586,0.112-1.107,0.307-1.568,0.585c-0.459,0.279-0.836,0.655-1.127,1.129
			c-0.293,0.474-0.482,1.059-0.564,1.755h-2.676c0.168-1.087,0.48-2.006,0.941-2.759c0.459-0.752,1.029-1.365,1.713-1.839
			c0.682-0.474,1.469-0.815,2.361-1.024s1.84-0.313,2.842-0.313c2.312,0,4.139,0.558,5.477,1.672
			c1.338,1.115,1.992,2.87,1.965,5.266v9.948c-0.029,0.809-0.016,1.616,0.041,2.424c0.055,0.809,0.111,1.575,0.168,2.299h-2.592
			l-0.084-3.093h-0.084l-0.125,0.293c-0.223,0.446-0.559,0.871-1.004,1.275s-0.961,0.767-1.545,1.086
			c-0.586,0.321-1.227,0.578-1.924,0.773c-0.697,0.194-1.393,0.292-2.09,0.292c-0.975,0-1.889-0.146-2.738-0.439
			s-1.588-0.717-2.215-1.275c-0.627-0.557-1.121-1.233-1.484-2.027c-0.361-0.794-0.543-1.707-0.543-2.738
			c0-1.421,0.391-2.654,1.17-3.699c0.781-1.045,1.799-1.832,3.053-2.362c0.695-0.306,1.441-0.522,2.236-0.648
			c0.793-0.125,1.602-0.202,2.424-0.229c0.82-0.028,1.643-0.035,2.465-0.021c0.822,0.014,1.609-0.007,2.363-0.063V31.301z
			 M521.109,40.246c0,1.421,0.467,2.473,1.4,3.156c0.934,0.683,2.041,1.024,3.322,1.024c1.365,0,2.473-0.257,3.324-0.773
			c0.85-0.515,1.504-1.191,1.965-2.027c0.459-0.836,0.752-1.791,0.877-2.863s0.16-2.153,0.105-3.239
			c-0.893,0.028-1.965,0.042-3.219,0.042s-2.461,0.125-3.615,0.376c-1.158,0.25-2.141,0.704-2.947,1.358
			C521.514,37.954,521.109,38.936,521.109,40.246z"/>
		<path fill="#FFFFFF" d="M542.93,27.414h-4.182v-2.299h4.182v-4.472l2.508-1.087v5.559h4.764v2.299h-4.764v14.044
			c-0.057,1.979,0.904,2.968,2.883,2.968c0.391,0,0.766-0.014,1.129-0.042c0.361-0.027,0.711-0.097,1.045-0.209v2.174
			c-0.391,0.111-0.809,0.202-1.254,0.271c-0.445,0.069-0.877,0.104-1.295,0.104c-1.338,0-2.35-0.188-3.031-0.564
			c-0.684-0.376-1.17-0.871-1.463-1.483s-0.453-1.282-0.48-2.006s-0.041-1.449-0.041-2.174V27.414z"/>
		<path fill="#FFFFFF" d="M556.555,36.191c0.027,1.115,0.18,2.174,0.459,3.177s0.711,1.881,1.297,2.633
			c0.584,0.752,1.33,1.345,2.236,1.776c0.904,0.433,1.998,0.648,3.281,0.648c0.752,0,1.455-0.125,2.109-0.376
			c0.654-0.25,1.254-0.599,1.799-1.045c0.543-0.445,0.994-0.975,1.357-1.588c0.361-0.613,0.627-1.282,0.795-2.006h2.633
			c-0.641,2.536-1.75,4.389-3.322,5.559c-1.576,1.17-3.631,1.755-6.166,1.755c-1.561,0-2.92-0.313-4.076-0.94
			s-2.109-1.456-2.863-2.487c-0.752-1.031-1.316-2.215-1.691-3.553c-0.377-1.337-0.564-2.717-0.564-4.138
			c0-1.421,0.193-2.801,0.584-4.138s0.977-2.521,1.756-3.553c0.779-1.031,1.756-1.86,2.926-2.487
			c1.17-0.627,2.535-0.941,4.098-0.941c1.754,0,3.238,0.3,4.451,0.899c1.211,0.6,2.201,1.428,2.967,2.487
			c0.766,1.06,1.316,2.299,1.65,3.72c0.336,1.421,0.502,2.954,0.502,4.598H556.555z M570.055,33.892
			c-0.084-1.003-0.279-1.943-0.584-2.821c-0.309-0.878-0.74-1.63-1.297-2.257s-1.246-1.121-2.068-1.484
			c-0.822-0.362-1.777-0.543-2.863-0.543c-1.031,0-1.938,0.195-2.717,0.585c-0.781,0.391-1.441,0.919-1.986,1.588
			c-0.543,0.669-0.975,1.428-1.295,2.278c-0.32,0.851-0.523,1.735-0.605,2.654H570.055z"/>
	</g>
	<rect y="0.349" fill="none" width="589.605" height="357.872"/>
</g>
<g>
</g>
<g>
</g>
<g>
</g>
<g>
</g>
<g>
</g>
<g>
</g>
</svg>
